<?xml version="1.0" encoding="UTF-8"?>
<!DOCTYPE svg PUBLIC "-//W3C//DTD SVG 1.1//EN" "http://www.w3.org/Graphics/SVG/1.1/DTD/svg11.dtd">
<svg version="1.2" width="360mm" height="380mm" viewBox="0 0 36000 38000" preserveAspectRatio="xMidYMid" fill-rule="evenodd" stroke-width="28.222" stroke-linejoin="round" xmlns="http://www.w3.org/2000/svg" xmlns:ooo="http://xml.openoffice.org/svg/export" xmlns:xlink="http://www.w3.org/1999/xlink" xmlns:presentation="http://sun.com/xmlns/staroffice/presentation" xmlns:smil="http://www.w3.org/2001/SMIL20/" xmlns:anim="urn:oasis:names:tc:opendocument:xmlns:animation:1.0" xml:space="preserve">
 <defs class="ClipPathGroup">
  <clipPath id="presentation_clip_path" clipPathUnits="userSpaceOnUse">
   <rect x="0" y="0" width="36000" height="38000"/>
  </clipPath>
  <clipPath id="presentation_clip_path_shrink" clipPathUnits="userSpaceOnUse">
   <rect x="36" y="38" width="35928" height="37924"/>
  </clipPath>
 </defs>
 <defs class="TextShapeIndex">
  <g ooo:slide="id1" ooo:id-list="id3 id4 id5 id6 id7 id8 id9 id10 id11 id12 id13 id14 id15 id16 id17 id18 id19 id20 id21 id22 id23 id24 id25 id26 id27 id28 id29 id30 id31 id32 id33 id34 id35 id36 id37 id38 id39 id40 id41 id42 id43 id44 id45 id46 id47 id48 id49 id50 id51 id52 id53 id54 id55 id56 id57 id58 id59 id60 id61 id62 id63 id64 id65 id66 id67 id68 id69 id70 id71 id72 id73 id74 id75 id76 id77 id78 id79 id80 id81 id82 id83 id84 id85 id86 id87 id88 id89 id90 id91 id92 id93 id94 id95 id96 id97 id98 id99 id100 id101 id102 id103 id104 id105 id106 id107 id108 id109 id110 id111 id112 id113"/>
 </defs>
 <defs class="EmbeddedBulletChars">
  <g id="bullet-char-template-57356" transform="scale(0.00048828125,-0.00048828125)">
   <path d="M 580,1141 L 1163,571 580,0 -4,571 580,1141 Z"/>
  </g>
  <g id="bullet-char-template-57354" transform="scale(0.00048828125,-0.00048828125)">
   <path d="M 8,1128 L 1137,1128 1137,0 8,0 8,1128 Z"/>
  </g>
  <g id="bullet-char-template-10146" transform="scale(0.00048828125,-0.00048828125)">
   <path d="M 174,0 L 602,739 174,1481 1456,739 174,0 Z M 1358,739 L 309,1346 659,739 1358,739 Z"/>
  </g>
  <g id="bullet-char-template-10132" transform="scale(0.00048828125,-0.00048828125)">
   <path d="M 2015,739 L 1276,0 717,0 1260,543 174,543 174,936 1260,936 717,1481 1274,1481 2015,739 Z"/>
  </g>
  <g id="bullet-char-template-10007" transform="scale(0.00048828125,-0.00048828125)">
   <path d="M 0,-2 C -7,14 -16,27 -25,37 L 356,567 C 262,823 215,952 215,954 215,979 228,992 255,992 264,992 276,990 289,987 310,991 331,999 354,1012 L 381,999 492,748 772,1049 836,1024 860,1049 C 881,1039 901,1025 922,1006 886,937 835,863 770,784 769,783 710,716 594,584 L 774,223 C 774,196 753,168 711,139 L 727,119 C 717,90 699,76 672,76 641,76 570,178 457,381 L 164,-76 C 142,-110 111,-127 72,-127 30,-127 9,-110 8,-76 1,-67 -2,-52 -2,-32 -2,-23 -1,-13 0,-2 Z"/>
  </g>
  <g id="bullet-char-template-10004" transform="scale(0.00048828125,-0.00048828125)">
   <path d="M 285,-33 C 182,-33 111,30 74,156 52,228 41,333 41,471 41,549 55,616 82,672 116,743 169,778 240,778 293,778 328,747 346,684 L 369,508 C 377,444 397,411 428,410 L 1163,1116 C 1174,1127 1196,1133 1229,1133 1271,1133 1292,1118 1292,1087 L 1292,965 C 1292,929 1282,901 1262,881 L 442,47 C 390,-6 338,-33 285,-33 Z"/>
  </g>
  <g id="bullet-char-template-9679" transform="scale(0.00048828125,-0.00048828125)">
   <path d="M 813,0 C 632,0 489,54 383,161 276,268 223,411 223,592 223,773 276,916 383,1023 489,1130 632,1184 813,1184 992,1184 1136,1130 1245,1023 1353,916 1407,772 1407,592 1407,412 1353,268 1245,161 1136,54 992,0 813,0 Z"/>
  </g>
  <g id="bullet-char-template-8226" transform="scale(0.00048828125,-0.00048828125)">
   <path d="M 346,457 C 273,457 209,483 155,535 101,586 74,649 74,723 74,796 101,859 155,911 209,963 273,989 346,989 419,989 480,963 531,910 582,859 608,796 608,723 608,648 583,586 532,535 482,483 420,457 346,457 Z"/>
  </g>
  <g id="bullet-char-template-8211" transform="scale(0.00048828125,-0.00048828125)">
   <path d="M -4,459 L 1135,459 1135,606 -4,606 -4,459 Z"/>
  </g>
  <g id="bullet-char-template-61548" transform="scale(0.00048828125,-0.00048828125)">
   <path d="M 173,740 C 173,903 231,1043 346,1159 462,1274 601,1332 765,1332 928,1332 1067,1274 1183,1159 1299,1043 1357,903 1357,740 1357,577 1299,437 1183,322 1067,206 928,148 765,148 601,148 462,206 346,322 231,437 173,577 173,740 Z"/>
  </g>
 </defs>
 <g>
  <g id="id2" class="Master_Slide">
   <g id="bg-id2" class="Background"/>
   <g id="bo-id2" class="BackgroundObjects"/>
  </g>
 </g>
 <g class="SlideGroup">
  <g>
   <g id="container-id1">
    <g id="id1" class="Slide" clip-path="url(#presentation_clip_path)">
     <g class="Page">
      <g class="com.sun.star.drawing.ClosedBezierShape">
       <g id="id3">
        <rect class="BoundingBox" stroke="none" fill="none" x="2656" y="2055" width="29774" height="33585"/>
        <path fill="rgb(3,3,3)" fill-opacity="0.969" stroke="rgb(255,255,255)" stroke-opacity="0.969" d="M 15271,2055 C 15348,2092 15414,2145 15470,2214 15518,2351 15589,2474 15681,2585 15831,2735 15981,2884 16131,3034 16181,3104 16221,3178 16250,3259 16246,3280 16237,3297 16224,3312 16343,3426 16484,3470 16647,3445 16829,3379 17014,3326 17203,3286 17377,3209 17479,3081 17507,2902 17452,2794 17377,2702 17282,2624 17107,2653 16931,2671 16753,2677 16611,2521 16629,2380 16806,2254 17247,2117 17679,2143 18102,2333 18190,2399 18256,2483 18301,2585 18344,2745 18393,2904 18446,3061 18646,3141 18840,3233 19028,3339 19185,3443 19304,3579 19385,3749 19584,3829 19774,3807 19954,3683 20043,3611 20079,3523 20060,3418 19937,3391 19814,3369 19690,3352 19629,3203 19673,3102 19822,3048 20554,2978 20894,3308 20840,4040 20789,4135 20727,4224 20655,4304 20556,4413 20570,4506 20695,4582 21206,4820 21475,5221 21502,5786 21589,5986 21668,6189 21740,6395 21745,6540 21772,6681 21819,6818 21935,6960 22041,7110 22137,7268 22208,7518 22287,7765 22375,8008 22529,8213 22728,8279 22970,8207 23026,8161 23048,8104 23036,8035 22976,7967 22901,7923 22811,7903 22787,7881 22770,7854 22759,7823 22887,7603 23072,7536 23314,7625 23614,7971 23627,8328 23354,8696 23203,8898 23013,9052 22785,9159 22594,9341 22396,9513 22190,9675 22172,9702 22172,9728 22190,9755 22446,10203 22477,10666 22282,11144 22449,11591 22594,12045 22719,12506 22800,12745 22937,12943 23129,13101 23288,13200 23456,13217 23632,13154 23762,12969 23722,12833 23513,12744 23459,12643 23482,12559 23579,12493 23862,12467 24061,12586 24174,12850 24253,13115 24218,13362 24068,13591 23712,13984 23267,14147 22732,14080 22620,14096 22549,14158 22520,14266 22663,14739 22615,15194 22375,15628 22166,16027 21972,16433 21793,16845 21665,17186 21731,17481 21991,17732 22061,17790 22136,17803 22216,17771 22238,17608 22322,17489 22468,17414 22374,17339 22290,17255 22216,17163 22201,16983 22284,16917 22468,16964 22605,17032 22689,17142 22719,17295 22730,17571 22659,17827 22507,18062 22431,18174 22356,18284 22282,18393 22286,18450 22313,18494 22362,18525 22511,18644 22670,18750 22838,18843 23027,18935 23213,18927 23394,18816 23517,18728 23640,18640 23764,18552 24163,18174 24564,17799 24968,17427 25424,16840 25821,16214 26158,15549 26367,14940 26490,14314 26529,13670 26560,12365 26595,11060 26635,9755 26587,8630 26790,7554 27242,6527 27471,6307 27691,6078 27903,5839 28011,5687 28108,5528 28195,5363 28314,5255 28420,5273 28512,5416 28596,5555 28622,5705 28591,5865 28551,6041 28489,6208 28406,6368 28231,6657 28046,6940 27851,7215 27801,7692 27845,8159 27983,8617 28071,8864 28159,9111 28247,9358 28594,9873 29013,10323 29504,10707 29780,10260 30142,9894 30589,9609 30929,9424 31291,9349 31674,9384 31713,9583 31652,9746 31488,9874 31166,9993 30915,10200 30734,10495 30546,10898 30440,11321 30417,11765 30413,12524 30413,13282 30417,14041 30351,14533 30311,15026 30298,15522 30310,15798 30341,16071 30390,16343 30433,16498 30504,16640 30602,16766 30756,16920 30911,17075 31065,17229 31230,17203 31398,17181 31568,17163 31805,17180 32017,17264 32203,17414 32298,17491 32373,17584 32428,17692 32436,17914 32361,18103 32203,18261 32145,18288 32083,18301 32018,18300 31710,18176 31459,18247 31264,18512 31071,18922 30965,19353 30946,19807 30802,20512 31054,21010 31700,21302 31831,21329 31963,21346 32097,21355 32243,21432 32292,21552 32242,21712 32210,21941 32117,22139 31965,22308 31920,22325 31877,22325 31832,22308 31724,22182 31601,22076 31462,21990 31051,21953 30654,21856 30271,21699 29837,21429 29432,21120 29054,20773 28672,20441 28231,20220 27732,20112 27257,20047 26800,20109 26357,20297 26111,20410 25926,20587 25801,20826 26153,21275 26550,21681 26991,22043 27235,22158 27491,22189 27758,22136 27849,22135 27937,22148 28023,22175 28054,22199 28076,22230 28089,22268 28108,22432 28104,22595 28075,22757 28104,23244 28355,23531 28829,23617 29186,23557 29544,23553 29901,23604 30145,23672 30326,23817 30443,24041 30461,24111 30461,24182 30443,24252 30420,24284 30389,24306 30351,24318 30213,24328 30080,24358 29954,24411 29929,24447 29911,24487 29901,24530 29961,24752 30054,24959 30179,25152 30395,25501 30642,25827 30920,26131 31131,26495 31030,26694 30615,26726 30588,26740 30571,26762 30562,26792 30668,26932 30761,27082 30840,27242 31015,27798 31059,28362 30973,28935 30935,29065 30878,29184 30801,29292 30715,29329 30627,29337 30536,29319 30492,29245 30439,29178 30377,29121 30324,29152 30284,29196 30258,29253 30299,29643 30330,30036 30351,30430 30366,30662 30335,30887 30258,31105 30148,31233 30011,31326 29848,31383 29618,31595 29428,31837 29279,32110 29037,32378 28786,32639 28525,32891 28295,33085 28031,33208 27732,33261 27687,33288 27643,33314 27599,33340 27095,33883 26532,34351 25907,34743 24710,35435 23423,35726 22044,35616 20960,35566 19999,35205 19160,34531 17858,33466 17086,32095 16845,30417 16777,29774 16769,29130 16819,28486 16965,27909 17124,27336 17295,26766 17382,26506 17479,26250 17586,25999 17955,25365 18365,24761 18816,24186 18718,24119 18612,24066 18499,24027 18224,23944 17950,23856 17679,23763 16182,23519 14727,23122 13313,22572 12984,22428 12676,22251 12387,22043 12056,21760 11721,21483 11382,21210 11144,21320 10906,21430 10668,21540 10422,21573 10184,21635 9953,21726 9592,21734 9230,21743 8869,21752 8687,21757 8528,21819 8392,21937 8220,22109 8048,22281 7876,22453 7793,22575 7732,22707 7691,22850 7567,23292 7492,23742 7466,24199 7455,24454 7512,24692 7638,24914 7875,25380 8192,25786 8591,26131 8680,26229 8760,26335 8829,26448 8973,26745 9109,27045 9239,27348 9320,27429 9417,27460 9530,27440 9581,27345 9656,27279 9755,27242 9834,27250 9878,27294 9887,27374 9910,27634 9791,27788 9530,27837 9433,27852 9336,27865 9239,27877 9072,27851 8904,27846 8736,27864 8651,27915 8593,27990 8564,28089 8547,28230 8547,28371 8564,28512 8610,28670 8668,28825 8736,28975 8700,29065 8642,29140 8564,29200 8496,29337 8465,29482 8472,29636 8481,29791 8494,29945 8511,30099 8523,30176 8549,30246 8591,30311 8714,30412 8846,30501 8988,30576 9013,30737 8942,30834 8776,30867 8492,30784 8232,30657 7995,30483 7609,30140 7159,29924 6646,29835 6378,29844 6131,29920 5905,30060 5655,30283 5435,30530 5244,30801 5306,30858 5376,30902 5456,30933 5497,30965 5527,31005 5548,31052 5575,31224 5557,31392 5495,31555 5204,31750 5001,31679 4887,31343 4819,31051 4779,30756 4768,30457 4849,30073 4929,29690 5006,29306 4990,28969 4888,28660 4702,28380 4449,28132 4317,28184 4305,28538 4172,28646 4027,28668 3868,28605 3722,28393 3674,28159 3723,27903 3804,27657 3923,27432 4080,27229 4556,26956 4913,26572 5151,26078 5238,25774 5299,25466 5337,25152 5393,24921 5455,24692 5522,24464 5873,23508 6208,22547 6527,21580 6617,21265 6696,20948 6765,20628 6949,20233 7262,20035 7704,20032 7787,19995 7867,19951 7943,19900 8378,19493 8836,19120 9318,18777 9096,18499 8906,18199 8749,17877 8559,17416 8418,16939 8326,16448 8244,15874 8156,15301 8062,14729 8021,14540 7968,14355 7903,14173 7572,13599 7254,13017 6950,12427 6785,12229 6627,12026 6474,11818 6408,11770 6342,11721 6276,11673 6232,11655 6188,11655 6143,11673 6015,11733 5900,11812 5800,11911 5550,12064 5303,12064 5059,11911 4880,11772 4748,11600 4662,11395 4668,11357 4681,11322 4702,11289 4865,11154 5024,11013 5178,10866 5136,10262 4924,9724 4543,9252 4176,8934 3792,8639 3392,8366 3330,8348 3268,8348 3207,8366 2997,8544 2816,8521 2664,8299 2638,8159 2673,8035 2770,7929 2922,7760 3102,7632 3313,7545 3408,7512 3505,7503 3604,7519 3786,7588 3972,7650 4159,7704 4268,7727 4374,7718 4477,7678 5089,6872 5244,5986 4940,5019 4835,4791 4690,4592 4503,4423 4302,4263 4086,4127 3855,4013 3817,3946 3808,3876 3828,3802 3913,3637 4045,3549 4225,3537 4461,3555 4685,3612 4900,3709 5427,4080 5855,4543 6183,5098 6262,5203 6350,5300 6448,5389 6491,5573 6592,5709 6752,5799 6813,5817 6875,5830 6937,5839 7117,5795 7289,5733 7453,5654 7471,5233 7401,4827 7241,4437 7224,4304 7224,4172 7241,4040 7307,3987 7382,3974 7466,4000 7626,4112 7745,4257 7823,4437 8056,4942 8170,5471 8167,6024 8108,6293 8051,6562 7995,6831 8030,6981 8127,7056 8286,7056 8498,7007 8653,6884 8749,6686 8793,6546 8829,6405 8855,6262 8892,6234 8932,6230 8974,6249 9134,6405 9226,6594 9252,6818 9285,7170 9206,7497 9014,7797 8805,8094 8576,8377 8326,8643 7851,9385 7789,10161 8141,10972 8284,11176 8416,11388 8538,11607 8834,11863 9147,12097 9477,12308 9737,12551 9936,12837 10072,13168 10237,13626 10422,14076 10628,14517 10691,14620 10775,14699 10879,14755 11024,14703 11143,14615 11236,14491 11488,13563 11920,12734 12533,12004 13018,11474 13543,10993 14107,10562 14411,10379 14711,10189 15007,9993 15019,9968 15028,9941 15033,9913 14970,9749 14917,9582 14874,9411 14458,9394 14061,9478 13684,9662 13493,9893 13290,10113 13075,10323 12672,10584 12231,10681 11752,10614 11549,10566 11346,10517 11144,10469 11043,10472 10946,10494 10853,10535 10718,10633 10568,10677 10403,10667 10379,10658 10357,10644 10337,10628 10259,10433 10286,10248 10416,10072 10556,9906 10719,9769 10906,9662 11271,9493 11632,9316 11990,9133 12051,9097 12055,9057 12004,9014 11536,9194 11078,9397 10628,9622 10565,9602 10507,9571 10456,9530 10273,9347 10075,9183 9861,9040 9814,8945 9814,8848 9861,8749 9927,8568 10041,8427 10205,8326 10283,8171 10354,8013 10416,7850 10465,7801 10513,7753 10562,7704 10817,7581 11081,7484 11356,7413 11468,7362 11574,7300 11673,7228 12222,6732 12786,6256 13366,5799 13609,5592 13834,5367 14041,5125 14075,5075 14084,5022 14067,4966 13678,4520 13510,4000 13565,3405 13680,3109 13742,2800 13750,2479 13874,2367 13989,2376 14094,2505 14253,2841 14412,3176 14570,3511 14671,3672 14781,3826 14901,3974 15027,4048 15097,4013 15112,3868 15091,3759 15051,3657 14993,3564 14984,3440 14971,3316 14954,3193 14974,2956 14987,2717 14993,2479 14996,2278 15089,2137 15271,2055 Z M 21885,25020 C 23071,25478 23984,26254 24624,27348 24841,27728 25043,28116 25232,28512 25433,29085 25522,29676 25497,30285 25328,30550 25130,30793 24902,31012 24519,31287 24096,31410 23632,31383 23456,31259 23262,31180 23050,31145 22870,31016 22782,30839 22785,30615 22821,30223 22856,29831 22891,29438 22888,29374 22875,29312 22851,29253 22672,29122 22487,29113 22296,29226 22260,29209 22234,29182 22216,29147 22207,28970 22199,28794 22190,28618 22149,28417 22056,28245 21912,28102 21775,28075 21638,28053 21502,28036 21484,27974 21484,27912 21502,27851 21575,27633 21664,27421 21766,27216 21825,27061 21843,26903 21819,26739 21806,26726 21793,26713 21780,26700 21661,26698 21550,26667 21449,26607 21410,26163 21471,25731 21634,25311 21682,25179 21765,25082 21885,25020 Z"/>
       </g>
      </g>
      <g class="com.sun.star.drawing.ClosedBezierShape">
       <g id="id4">
        <rect class="BoundingBox" stroke="none" fill="none" x="5626" y="2827" width="23097" height="32141"/>
        <path fill="rgb(21,132,102)" stroke="none" d="M 18939,6234 C 18937,6234 18935,6235 18934,6235 18954,6388 18994,6538 19053,6684 19126,6857 19205,7025 19291,7187 19390,8112 19408,9037 19344,9964 19240,10388 19121,10807 18987,11221 18986,11282 19000,11339 19026,11393 19166,11423 19263,11502 19317,11631 19335,12275 19335,12919 19317,13562 19314,13958 19283,14350 19225,14740 19213,15102 19305,15433 19503,15732 19487,15894 19465,16057 19436,16221 19438,16316 19451,16408 19476,16499 19520,16555 19578,16591 19648,16605 19947,16899 20251,17190 20561,17478 20641,17632 20712,17790 20772,17954 20877,18122 21023,18241 21208,18312 21748,18489 22233,18753 22663,19105 23100,19328 23514,19584 23907,19873 24840,20594 25726,21374 26566,22214 27875,23770 28590,25569 28709,27611 28736,28380 28718,29147 28656,29913 28627,30244 28547,30562 28418,30866 28337,30934 28244,30982 28140,31011 28071,31062 28022,31129 27994,31210 28020,31358 28037,31508 28047,31659 27935,31764 27803,31825 27650,31845 27491,31753 27319,31722 27134,31752 27046,31800 26993,31875 26976,31977 26986,32027 27012,32066 27055,32096 27169,32109 27284,32114 27399,32109 27403,32145 27399,32181 27386,32215 27199,32332 27085,32499 27042,32718 27018,32749 26987,32771 26949,32784 26835,32802 26720,32802 26605,32784 26545,32729 26501,32663 26473,32585 26333,32524 26205,32551 26089,32665 26071,32728 26075,32790 26103,32850 26216,32872 26331,32885 26447,32890 26468,32898 26486,32911 26499,32929 26517,33002 26539,33072 26566,33141 26648,33215 26732,33285 26817,33353 26795,33387 26769,33418 26738,33445 26583,33457 26429,33452 26275,33432 26196,33430 26121,33444 26050,33472 25963,33600 25883,33733 25812,33869 25730,33918 25642,33949 25547,33961 25262,33872 25090,33978 25031,34279 24887,34412 24715,34478 24515,34477 24408,34501 24311,34545 24224,34609 24083,34627 23942,34627 23801,34609 23717,34574 23633,34543 23550,34517 23260,34625 22974,34621 22690,34504 22625,34382 22536,34359 22425,34437 22359,34586 22298,34736 22240,34887 22115,34927 22014,34892 21936,34781 21922,34605 21918,34429 21922,34252 21653,34174 21486,34266 21420,34530 21476,34631 21520,34736 21552,34847 21564,34916 21537,34956 21473,34967 21387,34921 21312,34859 21248,34781 21108,34545 20923,34350 20693,34199 20675,34155 20675,34111 20693,34067 20801,33875 20745,33800 20521,33842 20465,33888 20425,33945 20402,34014 20354,34622 20218,34645 19992,34080 19957,34062 19921,34062 19886,34080 19834,34142 19772,34190 19701,34226 19192,33853 18738,33421 18338,32929 17942,32269 17625,31573 17386,30839 17115,29681 17124,28526 17412,27373 17541,26975 17673,26578 17809,26183 17972,25804 18175,25451 18418,25124 18447,25081 18487,25055 18537,25045 18721,25074 18906,25078 19092,25058 19132,25019 19172,24979 19212,24939 19185,25076 19167,25217 19159,25362 19140,25376 19127,25394 19119,25415 19152,25445 19178,25481 19198,25521 18565,26639 18230,27843 18193,29133 18232,29938 18448,30692 18841,31395 18932,31581 19051,31744 19198,31884 19242,31897 19286,31902 19331,31897 19335,31844 19330,31791 19317,31739 18827,30919 18549,30032 18484,29080 18480,28875 18511,28677 18577,28484 18628,28400 18703,28360 18801,28365 18867,28295 18938,28229 19013,28167 19255,28310 19347,28239 19291,27955 19261,27866 19199,27831 19106,27849 18965,27882 18829,27926 18696,27982 18719,27440 18838,26920 19053,26421 19084,26355 19132,26306 19198,26275 19375,26272 19551,26272 19727,26275 19903,26119 19903,25960 19727,25799 19617,25805 19520,25850 19436,25931 19402,25944 19367,25949 19331,25945 19407,25660 19557,25417 19780,25217 19845,25182 19911,25152 19979,25124 20049,25155 20115,25190 20177,25230 20235,25221 20284,25195 20323,25151 20367,25058 20398,24961 20415,24860 20388,24778 20352,24698 20310,24622 20319,24572 20346,24532 20389,24503 20468,24485 20548,24485 20627,24503 20727,24577 20836,24625 20957,24648 20965,24765 20921,24862 20824,24939 20810,25044 20823,25145 20864,25243 20861,25306 20835,25355 20785,25389 20453,25116 20308,25186 20349,25601 20420,25672 20469,25755 20495,25852 20455,26038 20366,26197 20230,26328 20140,26336 20052,26354 19966,26381 19929,26409 19902,26444 19886,26487 19938,26572 19982,26660 20018,26751 19999,26826 19972,26896 19939,26963 19943,27020 19965,27069 20005,27109 20010,27170 20014,27232 20018,27294 19970,27914 19992,28531 20085,29146 20291,29762 20600,30318 21010,30813 21569,31284 22208,31597 22928,31752 23175,31761 23422,31756 23669,31739 23663,31923 23601,32086 23483,32228 23449,32246 23419,32242 23391,32215 23308,31879 23141,31835 22888,32083 22858,32398 22735,32672 22518,32903 22455,33008 22468,33100 22557,33181 22623,33209 22685,33244 22743,33286 22929,33285 23114,33277 23298,33260 23419,33311 23525,33381 23616,33472 23706,33490 23795,33481 23880,33445 23939,33305 23979,33160 23999,33009 24379,32779 24736,32519 25071,32228 25162,32148 25237,32055 25296,31950 25477,31641 25644,31324 25798,30998 25899,30663 26023,30337 26169,30019 26292,29455 26292,28891 26169,28326 26110,28138 26000,27988 25838,27876 25779,27890 25739,27925 25719,27982 25710,28088 25701,28193 25693,28299 25351,27660 24989,27034 24608,26421 24182,25880 23675,25434 23087,25085 21982,24484 20809,24079 19569,23868 18899,23663 18219,23495 17532,23365 16716,23142 15896,22939 15071,22756 14437,22539 13810,22301 13193,22042 12928,21883 12663,21725 12399,21566 12197,21430 12056,21249 11975,21023 12227,21115 12483,21198 12743,21275 12828,21307 12899,21360 12954,21434 13131,21546 13259,21507 13338,21314 13356,21217 13356,21120 13338,21023 13264,21113 13176,21184 13073,21235 12965,21180 12934,21096 12981,20984 13117,20932 13258,20910 13404,20918 13566,20907 13720,20933 13867,20997 13977,20951 14083,20898 14185,20838 14227,20854 14262,20881 14290,20918 14376,21058 14477,21185 14595,21301 14772,21355 14891,21289 14952,21103 14970,21050 14970,20997 14952,20944 14835,20923 14716,20910 14595,20904 14493,20821 14392,20737 14290,20653 14114,20175 14268,19871 14753,19740 15035,19719 15313,19679 15587,19621 15627,19626 15666,19630 15706,19634 15825,19800 15984,19862 16182,19820 16448,19760 16681,19641 16883,19462 16913,19374 16883,19321 16791,19304 16694,19343 16597,19383 16500,19423 16411,19432 16323,19440 16235,19449 16178,19480 16130,19519 16090,19568 16046,19560 16019,19533 16010,19489 16020,19225 15901,19150 15653,19264 15519,19349 15378,19419 15230,19476 15013,19516 14810,19481 14621,19370 14545,19289 14554,19219 14648,19158 15081,19087 15478,18928 15838,18682 16048,18493 16092,18277 15971,18034 15905,17994 15848,18003 15799,18060 15786,18204 15742,18336 15666,18457 15587,18298 15508,18140 15428,17981 15349,17910 15269,17910 15190,17981 15207,18094 15215,18209 15216,18325 15147,18443 15080,18562 15018,18682 14824,18741 14639,18820 14462,18920 14364,19010 14258,19089 14145,19158 14006,19191 13948,19134 13973,18986 13945,18959 13914,18955 13880,18973 13776,19152 13674,19332 13576,19515 13523,19573 13456,19600 13378,19595 13434,19387 13509,19184 13603,18986 13644,18893 13666,18796 13669,18695 13544,18727 13442,18798 13364,18907 13277,19444 12972,19793 12452,19952 12343,20020 12348,20068 12465,20097 12638,20054 12810,20006 12981,19952 13315,19886 13452,20023 13391,20362 13359,20403 13319,20434 13272,20455 12781,20497 12296,20576 11817,20693 11462,20776 11118,20890 10785,21037 10334,21190 9871,21274 9396,21288 9168,21282 8943,21251 8721,21195 8591,21166 8476,21108 8377,21023 8424,20965 8485,20934 8563,20931 8730,20922 8898,20913 9065,20904 9243,20825 9428,20772 9621,20746 9692,20708 9710,20655 9674,20587 9550,20569 9427,20569 9303,20587 8984,20765 8693,20725 8430,20468 8337,20642 8240,20814 8139,20984 7992,21060 7833,21095 7663,21090 7500,21145 7491,21216 7637,21301 7815,21327 7986,21305 8152,21235 8219,21231 8249,21262 8245,21328 8225,21424 8194,21516 8152,21605 8066,21664 7973,21712 7875,21751 7628,21966 7465,22235 7385,22558 7276,22970 7179,23384 7094,23801 7067,24183 7085,24562 7147,24939 7166,25041 7210,25129 7279,25204 7685,25662 8091,26121 8496,26580 8648,26764 8723,26976 8721,27214 8693,27218 8667,27214 8642,27201 8581,27114 8511,27035 8430,26963 8325,26967 8263,27024 8245,27135 8280,27239 8328,27336 8391,27426 8413,27640 8360,27834 8232,28008 8213,28033 8191,28038 8166,28021 7982,27826 7828,27610 7703,27373 7582,27122 7440,26884 7279,26659 7199,26505 7128,26346 7068,26183 7018,26111 6952,26089 6869,26116 6840,26189 6835,26264 6856,26341 6888,26410 6914,26480 6935,26553 7337,27242 7690,27956 7994,28696 8052,28862 8105,29030 8152,29199 8170,29358 8170,29516 8152,29675 8134,29717 8112,29757 8086,29794 8047,29808 8016,29794 7994,29754 7922,29522 7887,29284 7888,29040 7791,28929 7711,28947 7650,29093 7649,29256 7627,29414 7584,29569 7533,29599 7480,29604 7425,29582 7143,29472 6852,29437 6552,29477 6272,29531 5998,29606 5732,29701 5727,29595 5732,29490 5745,29384 5842,29180 5917,28968 5970,28749 5965,28643 5912,28604 5811,28630 5740,28741 5687,28860 5652,28987 5643,28952 5635,28916 5626,28881 5723,28442 5815,28001 5904,27558 5906,26918 5884,26279 5837,25640 5834,25130 5908,24632 6062,24145 6354,23173 6654,22202 6962,21235 7028,20997 7090,20759 7147,20521 7232,20423 7333,20348 7451,20296 7672,20234 7893,20172 8113,20111 8951,19470 9851,18924 10811,18470 11329,18209 11712,17816 11962,17293 12064,17192 12165,17090 12267,16989 12434,16892 12602,16795 12769,16698 12722,16658 12669,16649 12610,16671 12257,16786 11971,16994 11751,17293 11626,17476 11498,17657 11367,17835 11287,17894 11221,17881 11169,17796 11333,16924 11796,16258 12558,15798 12872,15626 13189,15458 13510,15295 13730,15145 13951,14996 14171,14846 14207,14828 14242,14828 14277,14846 14295,14899 14313,14951 14330,15004 14727,15022 15124,15022 15521,15004 15973,14967 16392,14831 16777,14594 16795,14519 16764,14475 16685,14462 16564,14518 16441,14566 16314,14607 L 15944,14607 C 15648,14820 15330,14859 14992,14727 14845,14747 14700,14773 14555,14806 14470,14801 14404,14761 14357,14687 14313,14669 14268,14669 14224,14687 13681,14981 13125,15254 12558,15507 12196,15708 11883,15968 11618,16288 11490,16491 11349,16685 11195,16870 11160,16940 11124,17011 11089,17081 10954,17436 10848,17797 10772,18166 10702,18233 10618,18259 10520,18245 10525,18166 10520,18086 10507,18007 10399,17838 10342,17653 10335,17452 10364,17165 10417,16883 10494,16605 10485,16579 10476,16552 10467,16526 10369,16649 10303,16790 10269,16949 10187,17207 10143,17472 10137,17743 10074,17518 10057,17289 10084,17055 10174,16547 10332,16062 10560,15600 10636,15479 10738,15387 10864,15322 10931,15298 10988,15311 11036,15362 L 11063,15944 C 11064,16031 11095,16106 11155,16168 11216,16180 11269,16162 11314,16116 11390,16031 11474,15956 11565,15891 11620,15701 11699,15525 11804,15362 11837,15266 11806,15226 11711,15242 11624,15398 11519,15539 11393,15666 11359,15684 11329,15679 11301,15653 11296,15608 11292,15564 11288,15520 11416,14787 11632,14082 11936,13404 L 12677,12240 C 12771,12130 12859,12015 12941,11896 13219,11635 13497,11375 13775,11115 14112,10867 14465,10638 14833,10427 15056,10275 15263,10103 15455,9911 15508,9747 15504,9584 15441,9422 15440,9377 15457,9341 15494,9316 15562,9287 15632,9269 15706,9263 15944,9254 16182,9245 16420,9237 16893,9073 17286,8796 17598,8404 17702,8098 17860,7824 18074,7584 18222,7298 18231,7007 18100,6711 17948,6550 17877,6577 17889,6790 17933,6901 17964,7016 17981,7134 17973,7230 17942,7318 17889,7399 17789,7449 17692,7501 17598,7558 17551,7744 17498,7929 17439,8113 17372,8305 17261,8468 17108,8603 L 16685,8867 C 16534,8938 16375,8982 16209,8999 15847,9004 15485,8991 15124,8960 14579,8955 14067,9082 13589,9342 13361,9562 13140,9792 12928,10030 12589,10280 12210,10386 11790,10348 L 11724,10282 C 11719,10192 11706,10104 11684,10017 11647,10004 11611,9987 11579,9964 11723,9852 11882,9759 12055,9686 12267,9585 12488,9505 12716,9448 12939,9335 13147,9198 13338,9038 13355,8976 13333,8927 13272,8894 12877,8700 12467,8555 12042,8457 11919,8459 11800,8481 11684,8523 11238,8710 10775,8838 10295,8907 10201,8892 10157,8839 10163,8748 10312,8502 10506,8299 10745,8140 10867,8231 10867,8328 10745,8431 10726,8592 10792,8632 10944,8550 11090,8437 11187,8292 11235,8113 11201,8015 11157,7922 11102,7835 11106,7815 11115,7797 11129,7782 11680,7532 12156,7179 12558,6724 12871,6484 13180,6237 13484,5983 13932,5548 14391,5124 14859,4713 14949,4651 15046,4602 15150,4568 15249,4627 15350,4680 15455,4727 15512,4723 15556,4696 15587,4647 15553,4438 15535,4226 15534,4012 15588,3953 15654,3913 15732,3893 15818,3841 15831,3774 15772,3695 15692,3596 15590,3547 15468,3549 15436,3585 15401,3616 15362,3642 15344,3628 15330,3610 15322,3589 15282,3379 15273,3167 15296,2954 15319,2826 15385,2795 15494,2861 16057,3376 16264,4006 16116,4753 16167,4904 16242,5040 16341,5163 16415,5207 16490,5212 16566,5176 16580,5055 16567,4936 16526,4819 16528,4790 16537,4763 16553,4740 16858,4661 17149,4697 17426,4846 17566,4959 17698,5083 17823,5216 18014,5362 18229,5454 18466,5493 L 18939,6234 Z"/>
       </g>
      </g>
      <g class="com.sun.star.drawing.ClosedBezierShape">
       <g id="id5">
        <rect class="BoundingBox" stroke="none" fill="none" x="13918" y="3484" width="984" height="1215"/>
        <path fill="rgb(21,132,102)" stroke="none" d="M 14027,3484 C 14095,3486 14153,3512 14199,3564 14407,3882 14641,4182 14900,4463 14820,4529 14741,4595 14662,4662 14604,4698 14542,4707 14476,4688 14198,4446 14018,4141 13934,3775 13895,3650 13926,3553 14027,3484 Z"/>
       </g>
      </g>
      <g class="com.sun.star.drawing.ClosedBezierShape">
       <g id="id6">
        <rect class="BoundingBox" stroke="none" fill="none" x="3604" y="4594" width="6762" height="13364"/>
        <path fill="rgb(21,132,102)" stroke="none" d="M 5191,4595 C 5219,4591 5245,4596 5270,4609 5453,4846 5599,5106 5707,5389 5922,6045 6116,6707 6289,7373 6346,7506 6417,7629 6501,7744 6539,7788 6587,7805 6646,7797 6650,7734 6646,7673 6633,7612 6374,7045 6194,6454 6091,5839 6099,5804 6108,5768 6117,5733 6341,5929 6588,6092 6858,6223 7083,6307 7272,6259 7427,6077 7513,5949 7592,5817 7665,5680 7710,5642 7745,5651 7771,5707 7788,5848 7788,5989 7771,6130 7531,7027 7346,7936 7215,8855 7184,8920 7149,8920 7109,8855 7043,8665 6959,8484 6858,8313 6824,8295 6793,8299 6765,8326 6748,8405 6748,8485 6765,8564 6970,9134 7191,9699 7427,10257 7682,10910 8017,11518 8432,12083 8822,12455 9192,12843 9543,13247 9587,13326 9631,13406 9675,13485 9738,13717 9808,13946 9887,14173 9947,14295 10018,14409 10099,14517 10166,14772 10254,15019 10363,15258 10381,15571 10271,15831 10033,16038 9945,16093 9861,16089 9781,16025 9607,16170 9493,16355 9437,16581 9410,16612 9380,16639 9345,16660 9293,16579 9280,16491 9305,16395 9383,16169 9489,15957 9623,15760 9636,15726 9640,15691 9636,15655 9515,15682 9418,15748 9345,15853 9320,15866 9293,15870 9265,15866 9260,15758 9295,15665 9371,15588 9347,15527 9303,15509 9239,15536 9130,15683 9042,15842 8974,16012 8993,16075 9024,16132 9067,16184 9077,16414 9077,16643 9067,16872 9136,16937 9216,16990 9305,17030 9297,17251 9332,17462 9411,17665 9433,17757 9424,17845 9384,17930 9340,17965 9296,17965 9252,17930 9185,17826 9127,17715 9080,17599 8853,16923 8699,16231 8617,15522 8580,15045 8536,14569 8485,14094 8481,13998 8454,13910 8406,13829 8220,13609 8035,13388 7850,13168 7574,12730 7318,12280 7083,11818 7014,11705 6934,11599 6845,11501 6836,11430 6827,11360 6818,11289 6677,11172 6514,11105 6329,11091 6223,11073 6117,11073 6011,11091 5888,11232 5764,11373 5641,11514 5588,11549 5535,11585 5482,11620 5439,11639 5400,11635 5363,11607 5345,11554 5345,11501 5363,11448 5447,11245 5531,11042 5614,10839 5489,10327 5300,9842 5045,9384 4887,9190 4728,8996 4569,8802 4383,8640 4184,8495 3974,8366 3836,8241 3712,8104 3604,7956 3621,7947 3639,7938 3656,7929 3814,7980 3973,8029 4133,8075 4468,8144 4746,8051 4966,7797 5116,7558 5231,7302 5310,7029 5408,6450 5425,5868 5363,5283 5324,5048 5267,4819 5191,4595 Z"/>
       </g>
      </g>
      <g class="com.sun.star.drawing.ClosedBezierShape">
       <g id="id7">
        <rect class="BoundingBox" stroke="none" fill="none" x="14081" y="5545" width="2557" height="2174"/>
        <path fill="rgb(6,6,6)" stroke="none" d="M 14213,5548 C 14429,5526 14517,5623 14477,5839 14665,5829 14850,5842 15033,5879 15190,5982 15331,6106 15456,6249 15521,6305 15596,6336 15681,6342 15891,6327 16054,6235 16171,6064 16284,5985 16407,5928 16541,5892 16582,5893 16612,5910 16634,5945 16650,6120 16583,6257 16435,6355 16325,6377 16219,6412 16118,6461 16037,6533 15949,6594 15853,6646 15605,6638 15358,6620 15112,6593 15026,6635 14947,6688 14874,6752 14734,6806 14598,6863 14464,6924 14449,6998 14480,7046 14557,7069 14710,7094 14859,7129 15007,7175 15080,7256 15141,7344 15192,7440 15300,7487 15401,7544 15496,7612 15509,7651 15496,7682 15456,7704 15377,7722 15298,7722 15218,7704 15074,7652 14924,7626 14768,7625 14671,7536 14556,7483 14425,7466 14352,7340 14259,7230 14147,7135 14108,7046 14086,6954 14081,6858 14118,6729 14135,6596 14134,6461 14100,6210 14087,5959 14094,5707 14129,5649 14169,5597 14213,5548 Z"/>
       </g>
      </g>
      <g class="com.sun.star.drawing.ClosedBezierShape">
       <g id="id8">
        <rect class="BoundingBox" stroke="none" fill="none" x="14473" y="6130" width="250" height="266"/>
        <path fill="rgb(255,255,0)" stroke="none" d="M 14556,6130 C 14609,6130 14662,6130 14715,6130 14740,6264 14692,6352 14569,6395 14493,6393 14462,6353 14476,6275 14466,6204 14493,6155 14556,6130 Z"/>
       </g>
      </g>
      <g class="com.sun.star.drawing.ClosedBezierShape">
       <g id="id9">
        <rect class="BoundingBox" stroke="none" fill="none" x="27176" y="6526" width="663" height="1510"/>
        <path fill="rgb(21,132,102)" stroke="none" d="M 27784,6527 C 27808,6523 27825,6532 27837,6553 27762,6668 27687,6783 27612,6897 27541,7103 27461,7306 27374,7506 27365,7633 27338,7756 27295,7876 27274,7944 27235,7997 27176,8035 27216,7541 27370,7083 27639,6659 27685,6609 27733,6565 27784,6527 Z"/>
       </g>
      </g>
      <g class="com.sun.star.drawing.ClosedBezierShape">
       <g id="id10">
        <rect class="BoundingBox" stroke="none" fill="none" x="7492" y="7294" width="1377" height="2083"/>
        <path fill="rgb(21,132,102)" stroke="none" d="M 7836,7294 C 8017,7335 8193,7388 8365,7453 8535,7416 8703,7372 8868,7321 8856,7458 8808,7581 8722,7691 8455,7993 8208,8311 7981,8643 7872,8846 7784,9058 7717,9278 7688,9387 7635,9405 7558,9331 7535,9289 7517,9245 7505,9199 7488,8987 7488,8776 7505,8564 7585,8174 7673,7786 7770,7400 7787,7361 7809,7325 7836,7294 Z"/>
       </g>
      </g>
      <g class="com.sun.star.drawing.ClosedBezierShape">
       <g id="id11">
        <rect class="BoundingBox" stroke="none" fill="none" x="10800" y="7876" width="158" height="107"/>
        <path fill="rgb(207,207,207)" stroke="none" d="M 10906,7876 C 10963,7891 10971,7922 10932,7969 10886,7990 10842,7985 10800,7956 10837,7928 10872,7902 10906,7876 Z"/>
       </g>
      </g>
      <g class="com.sun.star.drawing.ClosedBezierShape">
       <g id="id12">
        <rect class="BoundingBox" stroke="none" fill="none" x="6248" y="8431" width="612" height="2172"/>
        <path fill="rgb(9,9,9)" stroke="none" d="M 6276,8432 C 6350,8430 6398,8466 6421,8538 6590,8831 6722,9140 6818,9464 6880,9784 6871,10101 6792,10416 6712,10606 6584,10650 6408,10548 6478,10448 6553,10351 6633,10257 6712,10040 6721,9820 6659,9596 6549,9220 6412,8854 6249,8498 6256,8474 6265,8452 6276,8432 Z"/>
       </g>
      </g>
      <g class="com.sun.star.drawing.ClosedBezierShape">
       <g id="id13">
        <rect class="BoundingBox" stroke="none" fill="none" x="23789" y="8776" width="8011" height="12781"/>
        <path fill="rgb(21,132,102)" stroke="none" d="M 27361,8776 C 27425,8773 27473,8799 27507,8855 27794,9521 28195,10108 28710,10614 28867,10771 29039,10908 29226,11025 29268,11171 29277,11321 29253,11474 29064,12067 28870,12658 28671,13247 28528,13551 28396,13860 28274,14173 28059,14541 27865,14920 27692,15311 27618,15449 27526,15573 27414,15681 27375,15659 27357,15623 27361,15575 27385,15473 27411,15372 27440,15271 27442,15193 27407,15167 27335,15192 27185,15319 27110,15482 27110,15681 27071,15789 27027,15895 26977,15999 26944,16054 26896,16081 26832,16078 27044,15458 27208,14823 27321,14173 27368,14025 27328,13910 27202,13829 27176,13842 27154,13859 27136,13882 27040,14352 26935,14819 26819,15284 26766,15487 26678,15672 26554,15840 26485,16101 26401,16357 26303,16607 26301,16751 26372,16835 26514,16858 26577,16912 26630,16974 26673,17044 26708,17061 26744,17061 26779,17044 26845,16978 26911,16911 26977,16845 27633,15897 28215,14900 28724,13856 29067,13134 29332,12384 29517,11607 29639,11294 29772,10985 29914,10681 30059,10483 30222,10302 30404,10138 30438,10125 30473,10121 30510,10125 30345,10444 30174,10762 29994,11077 29880,11388 29783,11705 29703,12030 29383,12859 29052,13684 28710,14504 28707,14564 28734,14604 28790,14623 28868,14594 28925,14541 28962,14464 29132,14035 29318,13611 29517,13194 29600,13016 29662,12831 29703,12638 29754,12491 29838,12368 29954,12268 29970,12274 29983,12282 29994,12295 30021,12381 30039,12469 30047,12559 30064,12921 30064,13282 30047,13644 29991,14199 29938,14755 29888,15311 29859,15754 29877,16195 29941,16634 30075,16918 30260,17165 30496,17374 30531,17424 30539,17477 30523,17533 30453,17605 30370,17654 30271,17679 29427,18004 28554,18123 27652,18036 27666,18003 27684,17972 27705,17943 27868,17815 28031,17687 28195,17560 28207,17525 28212,17490 28208,17454 28126,17455 28047,17459 27970,17467 27957,17385 27953,17302 27956,17216 27942,17202 27924,17193 27903,17189 27852,17214 27808,17249 27771,17295 27701,17431 27608,17550 27493,17652 27468,17665 27442,17669 27414,17665 27532,17411 27651,17156 27771,16898 27824,16786 27837,16671 27811,16554 27704,16657 27611,16771 27533,16898 27368,17167 27209,17441 27057,17718 27035,17810 27044,17898 27083,17983 27156,18026 27231,18066 27308,18102 27349,18161 27376,18227 27388,18300 27431,18348 27484,18379 27546,18393 28196,18411 28840,18358 29478,18234 29776,18158 30067,18061 30351,17943 30651,17793 30951,17643 31250,17493 31447,17460 31628,17500 31793,17612 31806,17652 31793,17683 31753,17705 31670,17725 31591,17752 31515,17784 31593,17860 31579,17909 31475,17930 31392,17842 31291,17812 31171,17837 30474,18152 29751,18381 29001,18525 28948,18562 28939,18606 28975,18658 29517,18607 30046,18493 30562,18314 30693,18187 30838,18165 30999,18247 31017,18283 31017,18318 30999,18353 30813,18683 30689,19036 30629,19412 30490,19947 30508,20476 30681,20999 30749,21154 30837,21295 30946,21422 30973,21463 30986,21507 30986,21555 30381,21421 29979,21060 29782,20470 29728,20393 29671,20318 29610,20245 29584,20227 29557,20227 29531,20245 29495,20307 29460,20368 29425,20430 29352,20446 29281,20437 29213,20404 28953,20258 28715,20082 28499,19875 28399,19816 28293,19772 28181,19742 27785,19703 27388,19694 26991,19716 26825,19749 26662,19789 26501,19835 26423,19776 26339,19723 26250,19676 26163,19732 26079,19794 25999,19861 25872,20032 25735,20195 25588,20351 25416,20451 25257,20433 25112,20298 25049,20217 25044,20134 25099,20047 25179,19975 25250,19896 25311,19808 25359,19522 25240,19385 24954,19398 24814,19476 24682,19564 24557,19663 24443,19714 24328,19714 24213,19663 24039,19609 23902,19508 23803,19359 23769,19213 23795,19080 23882,18962 23982,18791 24127,18690 24319,18658 24356,18549 24396,18438 24438,18327 24725,18077 25007,17822 25284,17560 25648,17088 25965,16585 26237,16052 26317,15980 26388,15901 26448,15813 26538,15467 26635,15123 26739,14782 26784,14563 26820,14342 26845,14120 26907,12736 26960,11351 27004,9966 27022,9931 27039,9931 27057,9966 27113,10131 27157,10298 27189,10469 27292,11483 27306,12497 27229,13512 27402,13528 27486,13449 27480,13273 27532,12008 27488,10747 27348,9490 27327,9250 27331,9012 27361,8776 Z"/>
       </g>
      </g>
      <g class="com.sun.star.drawing.ClosedBezierShape">
       <g id="id14">
        <rect class="BoundingBox" stroke="none" fill="none" x="10665" y="8984" width="587" height="296"/>
        <path fill="rgb(129,212,26)" stroke="none" d="M 11091,8987 C 11150,8979 11203,8992 11250,9027 11083,9177 10889,9260 10668,9278 10657,9211 10675,9154 10721,9106 10844,9058 10968,9018 11091,8987 Z"/>
       </g>
      </g>
      <g class="com.sun.star.drawing.ClosedBezierShape">
       <g id="id15">
        <rect class="BoundingBox" stroke="none" fill="none" x="11647" y="9225" width="928" height="412"/>
        <path fill="rgb(129,212,26)" stroke="none" d="M 12414,9225 C 12467,9225 12520,9225 12573,9225 12577,9260 12568,9291 12546,9318 12259,9467 11959,9573 11647,9636 11673,9609 11699,9583 11726,9556 11835,9514 11932,9452 12017,9371 12111,9340 12208,9322 12308,9318 12356,9301 12392,9270 12414,9225 Z"/>
       </g>
      </g>
      <g class="com.sun.star.drawing.ClosedBezierShape">
       <g id="id16">
        <rect class="BoundingBox" stroke="none" fill="none" x="17767" y="10786" width="415" height="504"/>
        <path fill="rgb(13,13,13)" stroke="none" d="M 18101,10786 C 18128,10786 18154,10786 18180,10786 18186,11024 18084,11191 17876,11289 17790,11283 17755,11239 17770,11157 17840,10995 17950,10871 18101,10786 Z"/>
       </g>
      </g>
      <g class="com.sun.star.drawing.ClosedBezierShape">
       <g id="id17">
        <rect class="BoundingBox" stroke="none" fill="none" x="17439" y="11542" width="370" height="309"/>
        <path fill="rgb(9,9,9)" stroke="none" d="M 17626,11554 C 17774,11516 17832,11569 17798,11712 17703,11820 17584,11864 17441,11845 17436,11800 17441,11756 17454,11712 17508,11653 17566,11600 17626,11554 Z"/>
       </g>
      </g>
      <g class="com.sun.star.drawing.ClosedBezierShape">
       <g id="id18">
        <rect class="BoundingBox" stroke="none" fill="none" x="6540" y="11580" width="125" height="107"/>
        <path fill="rgb(21,132,102)" stroke="none" d="M 6593,11580 C 6691,11608 6687,11643 6580,11686 6567,11677 6554,11668 6540,11660 6559,11633 6576,11606 6593,11580 Z"/>
       </g>
      </g>
      <g class="com.sun.star.drawing.ClosedBezierShape">
       <g id="id19">
        <rect class="BoundingBox" stroke="none" fill="none" x="16276" y="12266" width="927" height="704"/>
        <path fill="rgb(11,11,11)" stroke="none" d="M 17043,12267 C 17088,12263 17132,12267 17175,12280 17189,12295 17198,12313 17202,12333 17043,12734 16752,12945 16328,12968 16259,12924 16259,12880 16328,12836 16452,12783 16566,12717 16672,12637 16719,12432 16842,12309 17043,12267 Z"/>
       </g>
      </g>
      <g class="com.sun.star.drawing.ClosedBezierShape">
       <g id="id20">
        <rect class="BoundingBox" stroke="none" fill="none" x="15655" y="13212" width="556" height="309"/>
        <path fill="rgb(9,9,9)" stroke="none" d="M 16012,13221 C 16233,13188 16268,13246 16118,13393 15977,13498 15823,13538 15655,13512 15660,13452 15691,13404 15747,13366 15834,13310 15922,13261 16012,13221 Z"/>
       </g>
      </g>
      <g class="com.sun.star.drawing.ClosedBezierShape">
       <g id="id21">
        <rect class="BoundingBox" stroke="none" fill="none" x="14402" y="13827" width="630" height="347"/>
        <path fill="rgb(15,15,15)" stroke="none" d="M 14821,13828 C 14885,13823 14947,13831 15007,13855 15039,13885 15039,13916 15007,13947 14852,14051 14684,14126 14504,14172 14389,14159 14372,14111 14451,14027 14573,13952 14696,13886 14821,13828 Z"/>
       </g>
      </g>
      <g class="com.sun.star.drawing.ClosedBezierShape">
       <g id="id22">
        <rect class="BoundingBox" stroke="none" fill="none" x="17182" y="14383" width="153" height="213"/>
        <path fill="rgb(18,18,18)" stroke="none" d="M 17229,14384 C 17264,14379 17295,14388 17322,14410 17342,14470 17337,14528 17308,14582 17266,14601 17226,14597 17189,14569 17173,14501 17186,14439 17229,14384 Z"/>
       </g>
      </g>
      <g class="com.sun.star.drawing.ClosedBezierShape">
       <g id="id23">
        <rect class="BoundingBox" stroke="none" fill="none" x="12104" y="14729" width="364" height="688"/>
        <path fill="rgb(9,9,9)" stroke="none" d="M 12361,14729 C 12396,14729 12431,14729 12467,14729 12372,14938 12306,15158 12268,15390 12207,15431 12154,15422 12110,15364 12083,15108 12167,14897 12361,14729 Z"/>
       </g>
      </g>
      <g class="com.sun.star.drawing.ClosedBezierShape">
       <g id="id24">
        <rect class="BoundingBox" stroke="none" fill="none" x="19667" y="15229" width="501" height="273"/>
        <path fill="rgb(21,132,102)" stroke="none" d="M 19690,15231 C 19835,15225 19967,15264 20086,15350 20142,15384 20169,15432 20166,15496 20017,15512 19876,15490 19742,15430 19665,15378 19647,15312 19690,15231 Z"/>
       </g>
      </g>
      <g class="com.sun.star.drawing.ClosedBezierShape">
       <g id="id25">
        <rect class="BoundingBox" stroke="none" fill="none" x="28103" y="15734" width="74" height="161"/>
        <path fill="rgb(20,20,20)" stroke="none" d="M 28128,15734 C 28196,15784 28192,15837 28115,15893 28097,15837 28102,15784 28128,15734 Z"/>
       </g>
      </g>
      <g class="com.sun.star.drawing.ClosedBezierShape">
       <g id="id26">
        <rect class="BoundingBox" stroke="none" fill="none" x="19980" y="15893" width="324" height="331"/>
        <path fill="rgb(21,132,102)" stroke="none" d="M 20032,15893 C 20313,15894 20375,16004 20218,16223 20095,16202 20015,16127 19980,15999 19986,15957 20004,15922 20032,15893 Z"/>
       </g>
      </g>
      <g class="com.sun.star.drawing.ClosedBezierShape">
       <g id="id27">
        <rect class="BoundingBox" stroke="none" fill="none" x="26748" y="16369" width="104" height="160"/>
        <path fill="rgb(21,132,102)" stroke="none" d="M 26753,16369 C 26862,16397 26880,16450 26806,16528 26758,16487 26741,16435 26753,16369 Z"/>
       </g>
      </g>
      <g class="com.sun.star.drawing.ClosedBezierShape">
       <g id="id28">
        <rect class="BoundingBox" stroke="none" fill="none" x="13050" y="16395" width="103" height="134"/>
        <path fill="rgb(38,38,38)" stroke="none" d="M 13075,16395 C 13167,16423 13176,16467 13102,16528 13043,16494 13035,16450 13075,16395 Z"/>
       </g>
      </g>
      <g class="com.sun.star.drawing.ClosedBezierShape">
       <g id="id29">
        <rect class="BoundingBox" stroke="none" fill="none" x="9583" y="16554" width="135" height="209"/>
        <path fill="rgb(21,132,102)" stroke="none" d="M 9636,16554 C 9662,16554 9689,16554 9715,16554 9719,16617 9715,16678 9702,16739 9636,16781 9597,16763 9583,16686 9594,16639 9611,16595 9636,16554 Z"/>
       </g>
      </g>
      <g class="com.sun.star.drawing.ClosedBezierShape">
       <g id="id30">
        <rect class="BoundingBox" stroke="none" fill="none" x="11986" y="17533" width="536" height="771"/>
        <path fill="rgb(13,13,13)" stroke="none" d="M 12439,17533 C 12466,17533 12492,17533 12519,17533 12524,17599 12511,17661 12479,17718 12340,17864 12234,18032 12161,18221 12122,18285 12064,18311 11989,18300 11979,18196 12001,18099 12056,18009 12177,17845 12305,17686 12439,17533 Z"/>
       </g>
      </g>
      <g class="com.sun.star.drawing.ClosedBezierShape">
       <g id="id31">
        <rect class="BoundingBox" stroke="none" fill="none" x="12255" y="17877" width="557" height="664"/>
        <path fill="rgb(12,12,12)" stroke="none" d="M 12705,17877 C 12740,17877 12775,17877 12811,17877 12784,18006 12727,18120 12639,18221 12537,18322 12436,18424 12334,18525 12309,18538 12283,18542 12255,18539 12284,18410 12341,18295 12427,18195 12515,18084 12608,17978 12705,17877 Z"/>
       </g>
      </g>
      <g class="com.sun.star.drawing.ClosedBezierShape">
       <g id="id32">
        <rect class="BoundingBox" stroke="none" fill="none" x="12154" y="18350" width="1094" height="639"/>
        <path fill="rgb(8,8,8)" stroke="none" d="M 12864,18353 C 13020,18337 13148,18390 13247,18512 13224,18590 13175,18656 13102,18710 12814,18901 12500,18993 12162,18988 12144,18939 12157,18899 12202,18869 12443,18721 12663,18549 12864,18353 Z"/>
       </g>
      </g>
      <g class="com.sun.star.drawing.ClosedBezierShape">
       <g id="id33">
        <rect class="BoundingBox" stroke="none" fill="none" x="16091" y="18402" width="369" height="284"/>
        <path fill="rgb(19,19,19)" stroke="none" d="M 16329,18406 C 16440,18389 16480,18433 16449,18539 16371,18641 16269,18690 16144,18684 16080,18652 16075,18612 16131,18565 16187,18496 16253,18443 16329,18406 Z"/>
       </g>
      </g>
      <g class="com.sun.star.drawing.ClosedBezierShape">
       <g id="id34">
        <rect class="BoundingBox" stroke="none" fill="none" x="16568" y="18430" width="255" height="215"/>
        <path fill="rgb(22,22,22)" stroke="none" d="M 16647,18432 C 16775,18417 16833,18470 16819,18590 16716,18672 16632,18659 16568,18551 16589,18507 16616,18468 16647,18432 Z"/>
       </g>
      </g>
      <g class="com.sun.star.drawing.ClosedBezierShape">
       <g id="id35">
        <rect class="BoundingBox" stroke="none" fill="none" x="27360" y="18618" width="1711" height="1194"/>
        <path fill="rgb(6,6,6)" stroke="none" d="M 27573,18618 C 27883,18621 28191,18643 28499,18684 28586,18720 28625,18786 28618,18882 28640,18904 28662,18927 28684,18949 28786,18972 28883,19007 28975,19054 29031,19088 29057,19136 29054,19200 28882,19203 28710,19195 28538,19173 28380,19167 28358,19216 28472,19319 28691,19426 28890,19563 29068,19729 29077,19793 29046,19820 28975,19808 28920,19803 28867,19790 28816,19769 28358,19544 27890,19341 27414,19160 27362,19094 27348,19019 27374,18935 27407,18807 27473,18702 27573,18618 Z"/>
       </g>
      </g>
      <g class="com.sun.star.drawing.ClosedBezierShape">
       <g id="id36">
        <rect class="BoundingBox" stroke="none" fill="none" x="17599" y="18668" width="580" height="586"/>
        <path fill="rgb(6,6,6)" stroke="none" d="M 18048,18670 C 18098,18664 18138,18682 18167,18723 18205,18928 18139,19091 17969,19212 17808,19293 17689,19253 17612,19093 17591,19047 17595,19002 17625,18961 17715,18945 17803,18923 17889,18895 17952,18826 18005,18751 18048,18670 Z"/>
       </g>
      </g>
      <g class="com.sun.star.drawing.ClosedBezierShape">
       <g id="id37">
        <rect class="BoundingBox" stroke="none" fill="none" x="25699" y="18697" width="99" height="107"/>
        <path fill="rgb(38,38,38)" stroke="none" d="M 25721,18697 C 25822,18722 25822,18757 25721,18803 25692,18768 25692,18733 25721,18697 Z"/>
       </g>
      </g>
      <g class="com.sun.star.drawing.ClosedBezierShape">
       <g id="id38">
        <rect class="BoundingBox" stroke="none" fill="none" x="25548" y="19171" width="415" height="477"/>
        <path fill="rgb(7,7,7)" stroke="none" d="M 25562,19172 C 25651,19168 25739,19173 25827,19186 25947,19253 25987,19354 25946,19490 25856,19690 25750,19698 25628,19516 25552,19409 25530,19294 25562,19172 Z"/>
       </g>
      </g>
      <g class="com.sun.star.drawing.ClosedBezierShape">
       <g id="id39">
        <rect class="BoundingBox" stroke="none" fill="none" x="18827" y="19487" width="489" height="393"/>
        <path fill="rgb(16,16,16)" stroke="none" d="M 19133,19490 C 19194,19483 19251,19492 19305,19516 19348,19782 19238,19901 18974,19874 18869,19831 18820,19756 18829,19649 18909,19611 18993,19580 19080,19556 19103,19537 19121,19515 19133,19490 Z"/>
       </g>
      </g>
      <g class="com.sun.star.drawing.ClosedBezierShape">
       <g id="id40">
        <rect class="BoundingBox" stroke="none" fill="none" x="14217" y="19596" width="121" height="161"/>
        <path fill="rgb(21,132,102)" stroke="none" d="M 14238,19596 C 14348,19624 14365,19677 14291,19755 14215,19719 14197,19666 14238,19596 Z"/>
       </g>
      </g>
      <g class="com.sun.star.drawing.ClosedBezierShape">
       <g id="id41">
        <rect class="BoundingBox" stroke="none" fill="none" x="16921" y="19675" width="457" height="359"/>
        <path fill="rgb(11,11,11)" stroke="none" d="M 16964,19675 C 17120,19680 17256,19733 17375,19834 17387,19954 17330,20020 17203,20032 16993,20043 16900,19942 16925,19728 16944,19714 16957,19696 16964,19675 Z"/>
       </g>
      </g>
      <g class="com.sun.star.drawing.ClosedBezierShape">
       <g id="id42">
        <rect class="BoundingBox" stroke="none" fill="none" x="13655" y="19728" width="109" height="109"/>
        <path fill="rgb(21,132,102)" stroke="none" d="M 13656,19728 C 13692,19728 13727,19728 13762,19728 13762,19763 13762,19799 13762,19834 13683,19843 13647,19807 13656,19728 Z"/>
       </g>
      </g>
      <g class="com.sun.star.drawing.ClosedBezierShape">
       <g id="id43">
        <rect class="BoundingBox" stroke="none" fill="none" x="24696" y="19781" width="311" height="266"/>
        <path fill="rgb(21,132,102)" stroke="none" d="M 24874,19781 C 24918,19781 24962,19781 25006,19781 24985,19913 24910,20001 24782,20046 24709,20027 24683,19983 24702,19913 24754,19859 24811,19815 24874,19781 Z"/>
       </g>
      </g>
      <g class="com.sun.star.drawing.ClosedBezierShape">
       <g id="id44">
        <rect class="BoundingBox" stroke="none" fill="none" x="29240" y="19886" width="146" height="101"/>
        <path fill="rgb(23,23,23)" stroke="none" d="M 29266,19887 C 29337,19880 29377,19906 29385,19966 29326,20002 29277,19989 29240,19927 29254,19916 29263,19903 29266,19887 Z"/>
       </g>
      </g>
      <g class="com.sun.star.drawing.ClosedBezierShape">
       <g id="id45">
        <rect class="BoundingBox" stroke="none" fill="none" x="19739" y="20071" width="664" height="612"/>
        <path fill="rgb(9,9,9)" stroke="none" d="M 20191,20073 C 20250,20065 20299,20082 20337,20126 20423,20293 20423,20460 20337,20629 20295,20664 20247,20682 20191,20682 19967,20650 19817,20530 19741,20324 19730,20248 19761,20199 19834,20179 19898,20222 19965,20253 20032,20271 20089,20207 20142,20141 20191,20073 Z"/>
       </g>
      </g>
      <g class="com.sun.star.drawing.ClosedBezierShape">
       <g id="id46">
        <rect class="BoundingBox" stroke="none" fill="none" x="14954" y="20176" width="583" height="507"/>
        <path fill="rgb(8,8,8)" stroke="none" d="M 14980,20178 C 15016,20174 15052,20178 15086,20191 15183,20372 15333,20438 15536,20390 15528,20530 15457,20627 15324,20681 15152,20583 15028,20442 14954,20257 14959,20229 14967,20202 14980,20178 Z"/>
       </g>
      </g>
      <g class="com.sun.star.drawing.ClosedBezierShape">
       <g id="id47">
        <rect class="BoundingBox" stroke="none" fill="none" x="18085" y="20231" width="602" height="632"/>
        <path fill="rgb(8,8,8)" stroke="none" d="M 18552,20231 C 18653,20235 18697,20287 18684,20390 18660,20565 18590,20720 18473,20853 18316,20882 18188,20834 18089,20707 18074,20633 18105,20585 18181,20562 18261,20553 18340,20544 18420,20535 18446,20425 18490,20324 18552,20231 Z"/>
       </g>
      </g>
      <g class="com.sun.star.drawing.ClosedBezierShape">
       <g id="id48">
        <rect class="BoundingBox" stroke="none" fill="none" x="15802" y="20654" width="585" height="475"/>
        <path fill="rgb(11,11,11)" stroke="none" d="M 16276,20654 C 16311,20654 16346,20654 16381,20654 16396,20797 16365,20929 16289,21051 16114,21169 15955,21151 15813,20998 15791,20940 15804,20891 15852,20853 15960,20846 16066,20829 16170,20800 16221,20762 16256,20713 16276,20654 Z"/>
       </g>
      </g>
      <g class="com.sun.star.drawing.ClosedBezierShape">
       <g id="id49">
        <rect class="BoundingBox" stroke="none" fill="none" x="12441" y="20681" width="287" height="319"/>
        <path fill="rgb(21,132,102)" stroke="none" d="M 12520,20681 C 12687,20676 12753,20755 12718,20919 12630,21025 12542,21025 12453,20919 12425,20823 12447,20744 12520,20681 Z"/>
       </g>
      </g>
      <g class="com.sun.star.drawing.ClosedBezierShape">
       <g id="id50">
        <rect class="BoundingBox" stroke="none" fill="none" x="16833" y="20730" width="555" height="429"/>
        <path fill="rgb(10,10,10)" stroke="none" d="M 17281,20733 C 17346,20723 17381,20749 17387,20813 17363,20945 17301,21055 17202,21144 17068,21179 16953,21148 16858,21051 16825,21001 16825,20953 16858,20905 17020,20895 17161,20837 17281,20733 Z"/>
       </g>
      </g>
      <g class="com.sun.star.drawing.ClosedBezierShape">
       <g id="id51">
        <rect class="BoundingBox" stroke="none" fill="none" x="19113" y="20944" width="444" height="441"/>
        <path fill="rgb(18,18,18)" stroke="none" d="M 19450,20945 C 19501,20947 19532,20974 19543,21025 19597,21345 19469,21451 19159,21342 19116,21306 19103,21262 19120,21210 19182,21204 19249,21199 19318,21196 19355,21108 19399,21024 19450,20945 Z"/>
       </g>
      </g>
      <g class="com.sun.star.drawing.ClosedBezierShape">
       <g id="id52">
        <rect class="BoundingBox" stroke="none" fill="none" x="20035" y="20998" width="526" height="608"/>
        <path fill="rgb(8,8,8)" stroke="none" d="M 20429,20999 C 20479,20994 20519,21011 20548,21052 20569,21204 20560,21354 20522,21502 20392,21612 20246,21634 20085,21568 20037,21529 20024,21481 20046,21422 20123,21373 20198,21320 20271,21264 20297,21158 20350,21070 20429,20999 Z"/>
       </g>
      </g>
      <g class="com.sun.star.drawing.ClosedBezierShape">
       <g id="id53">
        <rect class="BoundingBox" stroke="none" fill="none" x="13946" y="21367" width="151" height="134"/>
        <path fill="rgb(0,0,0)" stroke="none" d="M 13947,21368 C 13992,21364 14036,21369 14080,21382 14119,21483 14084,21519 13974,21488 13951,21452 13942,21412 13947,21368 Z"/>
       </g>
      </g>
      <g class="com.sun.star.drawing.ClosedBezierShape">
       <g id="id54">
        <rect class="BoundingBox" stroke="none" fill="none" x="15142" y="21342" width="125" height="123"/>
        <path fill="rgb(0,0,0)" stroke="none" d="M 15165,21342 C 15262,21338 15289,21378 15245,21461 15144,21474 15118,21434 15165,21342 Z"/>
       </g>
      </g>
      <g class="com.sun.star.drawing.ClosedBezierShape">
       <g id="id55">
        <rect class="BoundingBox" stroke="none" fill="none" x="14530" y="21527" width="234" height="212"/>
        <path fill="rgb(0,0,0)" stroke="none" d="M 14636,21527 C 14755,21535 14790,21592 14742,21699 14655,21761 14585,21748 14530,21659 14548,21598 14583,21554 14636,21527 Z"/>
       </g>
      </g>
      <g class="com.sun.star.drawing.ClosedBezierShape">
       <g id="id56">
        <rect class="BoundingBox" stroke="none" fill="none" x="13708" y="21552" width="669" height="535"/>
        <path fill="rgb(0,0,0)" stroke="none" d="M 13710,21554 C 13747,21550 13782,21554 13816,21567 13880,21660 13951,21748 14028,21831 14165,21880 14240,21831 14253,21686 14349,21646 14389,21681 14372,21792 14332,22099 14182,22165 13922,21990 13767,21878 13696,21733 13710,21554 Z"/>
       </g>
      </g>
      <g class="com.sun.star.drawing.ClosedBezierShape">
       <g id="id57">
        <rect class="BoundingBox" stroke="none" fill="none" x="15589" y="21685" width="685" height="841"/>
        <path fill="rgb(0,0,0)" stroke="none" d="M 16117,21686 C 16180,21683 16229,21710 16262,21765 16281,21856 16272,21944 16236,22030 16144,22129 16038,22208 15918,22268 15867,22350 15818,22433 15773,22519 15697,22537 15653,22506 15641,22427 15675,22353 15701,22278 15720,22202 15699,22094 15659,21992 15601,21898 15572,21825 15594,21781 15667,21765 15747,21788 15818,21828 15879,21884 15932,21902 15985,21902 16037,21884 16052,21813 16079,21746 16117,21686 Z"/>
       </g>
      </g>
      <g class="com.sun.star.drawing.ClosedBezierShape">
       <g id="id58">
        <rect class="BoundingBox" stroke="none" fill="none" x="16806" y="21739" width="658" height="428"/>
        <path fill="rgb(11,11,11)" stroke="none" d="M 17282,21739 C 17429,21751 17487,21831 17454,21977 17352,22140 17207,22197 17017,22149 16917,22115 16846,22048 16806,21951 16827,21916 16854,21885 16885,21858 17000,21849 17114,21840 17229,21831 17250,21802 17268,21771 17282,21739 Z"/>
       </g>
      </g>
      <g class="com.sun.star.drawing.ClosedBezierShape">
       <g id="id59">
        <rect class="BoundingBox" stroke="none" fill="none" x="13338" y="21792" width="172" height="162"/>
        <path fill="rgb(0,0,0)" stroke="none" d="M 13392,21792 C 13513,21801 13540,21850 13471,21937 13428,21950 13384,21955 13339,21951 13332,21888 13350,21835 13392,21792 Z"/>
       </g>
      </g>
      <g class="com.sun.star.drawing.ClosedBezierShape">
       <g id="id60">
        <rect class="BoundingBox" stroke="none" fill="none" x="14590" y="22081" width="520" height="244"/>
        <path fill="rgb(0,0,0)" stroke="none" d="M 14636,22083 C 14751,22078 14866,22083 14980,22096 15160,22184 15151,22254 14954,22308 14815,22345 14696,22315 14597,22215 14580,22162 14594,22118 14636,22083 Z"/>
       </g>
      </g>
      <g class="com.sun.star.drawing.ClosedBezierShape">
       <g id="id61">
        <rect class="BoundingBox" stroke="none" fill="none" x="18617" y="22162" width="597" height="330"/>
        <path fill="rgb(9,9,9)" stroke="none" d="M 18763,22162 C 18912,22162 19062,22162 19212,22162 19222,22440 19089,22542 18815,22466 18698,22429 18632,22354 18617,22242 18667,22212 18715,22186 18763,22162 Z"/>
       </g>
      </g>
      <g class="com.sun.star.drawing.ClosedBezierShape">
       <g id="id62">
        <rect class="BoundingBox" stroke="none" fill="none" x="21032" y="22239" width="397" height="349"/>
        <path fill="rgb(12,12,12)" stroke="none" d="M 21145,22243 C 21249,22231 21342,22258 21422,22322 21450,22493 21375,22581 21198,22587 21050,22558 21001,22470 21052,22322 21082,22292 21113,22265 21145,22243 Z"/>
       </g>
      </g>
      <g class="com.sun.star.drawing.ClosedBezierShape">
       <g id="id63">
        <rect class="BoundingBox" stroke="none" fill="none" x="15192" y="22425" width="160" height="107"/>
        <path fill="rgb(0,0,0)" stroke="none" d="M 15192,22428 C 15251,22419 15304,22433 15351,22467 15265,22564 15212,22551 15192,22428 Z"/>
       </g>
      </g>
      <g class="com.sun.star.drawing.ClosedBezierShape">
       <g id="id64">
        <rect class="BoundingBox" stroke="none" fill="none" x="27335" y="22451" width="390" height="335"/>
        <path fill="rgb(0,169,51)" stroke="none" d="M 27388,22480 C 27732,22395 27811,22497 27626,22784 27480,22789 27383,22718 27335,22572 27347,22538 27365,22507 27388,22480 Z"/>
       </g>
      </g>
      <g class="com.sun.star.drawing.ClosedBezierShape">
       <g id="id65">
        <rect class="BoundingBox" stroke="none" fill="none" x="16097" y="22584" width="1157" height="373"/>
        <path fill="rgb(10,10,10)" stroke="none" d="M 16144,22586 C 16391,22581 16638,22586 16885,22599 16937,22624 16981,22659 17017,22705 17098,22726 17173,22757 17242,22797 17272,22886 17242,22939 17150,22956 17071,22917 16992,22877 16912,22837 16683,22807 16454,22789 16224,22784 16090,22754 16063,22688 16144,22586 Z"/>
       </g>
      </g>
      <g class="com.sun.star.drawing.ClosedBezierShape">
       <g id="id66">
        <rect class="BoundingBox" stroke="none" fill="none" x="17507" y="22635" width="597" height="442"/>
        <path fill="rgb(11,11,11)" stroke="none" d="M 17943,22639 C 18032,22623 18085,22658 18102,22745 18046,22939 17922,23049 17732,23076 17594,23027 17519,22934 17507,22798 17520,22785 17533,22772 17547,22758 17635,22750 17723,22741 17811,22732 17874,22726 17918,22695 17943,22639 Z"/>
       </g>
      </g>
      <g class="com.sun.star.drawing.ClosedBezierShape">
       <g id="id67">
        <rect class="BoundingBox" stroke="none" fill="none" x="23114" y="22718" width="532" height="636"/>
        <path fill="rgb(6,6,6)" stroke="none" d="M 23419,22718 C 23621,22730 23687,22835 23617,23035 23584,23200 23487,23306 23326,23353 23134,23268 23072,23127 23141,22929 23228,22849 23321,22778 23419,22718 Z"/>
       </g>
      </g>
      <g class="com.sun.star.drawing.ClosedBezierShape">
       <g id="id68">
        <rect class="BoundingBox" stroke="none" fill="none" x="21646" y="22929" width="534" height="663"/>
        <path fill="rgb(11,11,11)" stroke="none" d="M 21964,22929 C 22072,22929 22138,22982 22162,23088 22221,23350 22124,23517 21871,23591 21745,23549 21670,23460 21646,23326 21656,23276 21683,23237 21726,23207 21786,23201 21843,23188 21898,23168 21903,23082 21925,23003 21964,22929 Z"/>
       </g>
      </g>
      <g class="com.sun.star.drawing.ClosedBezierShape">
       <g id="id69">
        <rect class="BoundingBox" stroke="none" fill="none" x="19689" y="23009" width="637" height="367"/>
        <path fill="rgb(0,0,0)" stroke="none" d="M 19715,23010 C 19816,23030 19917,23048 20019,23063 20096,23064 20167,23047 20231,23010 20291,23004 20322,23030 20324,23089 20292,23311 20168,23404 19953,23367 19815,23325 19727,23237 19689,23102 19692,23069 19701,23038 19715,23010 Z"/>
       </g>
      </g>
      <g class="com.sun.star.drawing.ClosedBezierShape">
       <g id="id70">
        <rect class="BoundingBox" stroke="none" fill="none" x="18270" y="23088" width="98" height="108"/>
        <path fill="rgb(21,132,102)" stroke="none" d="M 18287,23088 C 18314,23088 18340,23088 18367,23088 18367,23123 18367,23159 18367,23194 18275,23200 18249,23165 18287,23088 Z"/>
       </g>
      </g>
      <g class="com.sun.star.drawing.ClosedBezierShape">
       <g id="id71">
        <rect class="BoundingBox" stroke="none" fill="none" x="20707" y="23164" width="529" height="471"/>
        <path fill="rgb(7,7,7)" stroke="none" d="M 21065,23168 C 21138,23153 21186,23180 21211,23247 21286,23526 21185,23654 20907,23631 20766,23587 20699,23495 20708,23353 20856,23343 20975,23281 21065,23168 Z"/>
       </g>
      </g>
      <g class="com.sun.star.drawing.ClosedBezierShape">
       <g id="id72">
        <rect class="BoundingBox" stroke="none" fill="none" x="25328" y="23458" width="348" height="391"/>
        <path fill="rgb(6,6,6)" stroke="none" d="M 25563,23459 C 25598,23454 25629,23463 25656,23485 25720,23755 25619,23874 25351,23842 25317,23775 25321,23709 25365,23644 25428,23576 25494,23514 25563,23459 Z"/>
       </g>
      </g>
      <g class="com.sun.star.drawing.ClosedBezierShape">
       <g id="id73">
        <rect class="BoundingBox" stroke="none" fill="none" x="23631" y="23750" width="534" height="530"/>
        <path fill="rgb(13,13,13)" stroke="none" d="M 24028,23750 C 24151,23767 24190,23838 24147,23961 24117,24096 24047,24202 23935,24279 23803,24213 23701,24116 23631,23988 23644,23946 23671,23915 23710,23895 23839,23889 23945,23841 24028,23750 Z"/>
       </g>
      </g>
      <g class="com.sun.star.drawing.ClosedBezierShape">
       <g id="id74">
        <rect class="BoundingBox" stroke="none" fill="none" x="22572" y="23828" width="408" height="440"/>
        <path fill="rgb(11,11,11)" stroke="none" d="M 22837,23830 C 22880,23824 22920,23833 22956,23856 23028,24133 22927,24269 22652,24267 22576,24222 22554,24156 22586,24068 22656,23974 22740,23894 22837,23830 Z"/>
       </g>
      </g>
      <g class="com.sun.star.drawing.ClosedBezierShape">
       <g id="id75">
        <rect class="BoundingBox" stroke="none" fill="none" x="28181" y="23853" width="2486" height="8440"/>
        <path fill="rgb(0,169,51)" stroke="none" d="M 28181,23856 C 28695,23846 29206,23863 29716,23909 29746,23951 29750,23995 29729,24042 29652,24170 29581,24302 29517,24439 29502,24709 29572,24956 29729,25179 29952,25493 30181,25801 30417,26105 30438,26152 30434,26196 30404,26238 30272,26288 30139,26336 30007,26383 29880,26497 29867,26625 29967,26767 30211,27010 30414,27284 30576,27587 30657,27918 30683,28253 30655,28592 30615,28620 30575,28615 30536,28579 30454,28461 30343,28386 30205,28354 30105,28367 30034,28420 29994,28513 29886,29092 29873,29674 29954,30259 29949,30383 29940,30507 29927,30630 29804,30625 29680,30630 29557,30643 29510,30663 29470,30694 29438,30735 29380,31316 29146,31814 28737,32230 28573,32342 28462,32303 28406,32111 28389,32005 28389,31900 28406,31794 28530,31494 28653,31194 28777,30894 28933,30313 29029,29723 29068,29122 29103,28237 29077,27355 28988,26476 28862,25865 28694,25265 28486,24677 28468,24615 28468,24553 28486,24491 28523,24441 28554,24388 28578,24333 28484,24270 28391,24199 28300,24121 28225,24049 28185,23961 28181,23856 Z"/>
       </g>
      </g>
      <g class="com.sun.star.drawing.ClosedBezierShape">
       <g id="id76">
        <rect class="BoundingBox" stroke="none" fill="none" x="18897" y="24436" width="600" height="319"/>
        <path fill="rgb(21,132,102)" stroke="none" d="M 19212,24439 C 19308,24431 19400,24440 19490,24465 19510,24552 19479,24618 19398,24663 19236,24779 19073,24784 18908,24677 18890,24643 18894,24612 18921,24584 19021,24534 19118,24486 19212,24439 Z"/>
       </g>
      </g>
      <g class="com.sun.star.drawing.ClosedBezierShape">
       <g id="id77">
        <rect class="BoundingBox" stroke="none" fill="none" x="23975" y="24753" width="529" height="421"/>
        <path fill="rgb(12,12,12)" stroke="none" d="M 24054,24755 C 24178,24751 24301,24755 24424,24768 24523,24871 24528,24981 24438,25099 24335,25201 24233,25196 24133,25086 24054,25028 24001,24953 23975,24861 23982,24809 24009,24774 24054,24755 Z"/>
       </g>
      </g>
      <g class="com.sun.star.drawing.ClosedBezierShape">
       <g id="id78">
        <rect class="BoundingBox" stroke="none" fill="none" x="18551" y="25337" width="370" height="610"/>
        <path fill="rgb(0,0,0)" stroke="none" d="M 18683,25337 C 18903,25388 18969,25520 18882,25734 18808,25830 18715,25900 18604,25946 18572,25935 18554,25913 18551,25879 18606,25698 18650,25518 18683,25337 Z"/>
       </g>
      </g>
      <g class="com.sun.star.drawing.ClosedBezierShape">
       <g id="id79">
        <rect class="BoundingBox" stroke="none" fill="none" x="24810" y="25654" width="453" height="492"/>
        <path fill="rgb(9,9,9)" stroke="none" d="M 24874,25655 C 24972,25682 25061,25730 25139,25800 25344,26034 25291,26148 24980,26144 24797,26007 24762,25843 24874,25655 Z"/>
       </g>
      </g>
      <g class="com.sun.star.drawing.ClosedBezierShape">
       <g id="id80">
        <rect class="BoundingBox" stroke="none" fill="none" x="20354" y="25970" width="2167" height="5109"/>
        <path fill="rgb(0,169,51)" stroke="none" d="M 20906,25972 C 20949,25966 20989,25975 21025,25999 21066,26163 21075,26331 21051,26501 20989,26704 20928,26907 20866,27110 20848,27163 20848,27216 20866,27268 20965,27351 21075,27417 21197,27467 21212,27491 21221,27517 21223,27546 21156,27768 21098,27993 21051,28221 21033,28371 21033,28521 21051,28671 21105,28835 21215,28941 21382,28988 21429,28973 21473,28951 21514,28922 21576,28843 21638,28763 21699,28684 21742,28665 21782,28669 21818,28697 21847,28764 21865,28835 21871,28909 21884,29156 21889,29403 21884,29650 22097,29644 22309,29653 22519,29676 22475,29940 22440,30204 22414,30470 22416,30674 22434,30877 22467,31078 22235,31047 22024,30963 21832,30827 20931,30163 20451,29268 20390,28142 20272,27345 20443,26622 20906,25972 Z"/>
       </g>
      </g>
      <g class="com.sun.star.drawing.ClosedBezierShape">
       <g id="id81">
        <rect class="BoundingBox" stroke="none" fill="none" x="25190" y="26581" width="159" height="162"/>
        <path fill="rgb(21,21,21)" stroke="none" d="M 25297,26581 C 25346,26599 25359,26634 25337,26686 25299,26730 25250,26748 25192,26739 25185,26700 25193,26665 25218,26634 25251,26622 25277,26604 25297,26581 Z"/>
       </g>
      </g>
      <g class="com.sun.star.drawing.ClosedBezierShape">
       <g id="id82">
        <rect class="BoundingBox" stroke="none" fill="none" x="4873" y="26792" width="235" height="239"/>
        <path fill="rgb(21,132,102)" stroke="none" d="M 5058,26792 C 5103,26801 5117,26828 5097,26872 5043,26940 4977,26993 4899,27030 4870,27007 4866,26981 4886,26951 4940,26892 4998,26839 5058,26792 Z"/>
       </g>
      </g>
      <g class="com.sun.star.drawing.ClosedBezierShape">
       <g id="id83">
        <rect class="BoundingBox" stroke="none" fill="none" x="4510" y="26792" width="1145" height="1748"/>
        <path fill="rgb(21,132,102)" stroke="none" d="M 5535,26792 C 5590,26843 5629,26905 5654,26977 5645,27413 5601,27845 5522,28274 5500,28346 5474,28417 5442,28486 5423,28514 5396,28532 5363,28538 5154,28268 4903,28043 4609,27864 4505,27789 4483,27696 4543,27586 4750,27365 4993,27193 5270,27070 5364,26981 5452,26888 5535,26792 Z"/>
       </g>
      </g>
      <g class="com.sun.star.drawing.ClosedBezierShape">
       <g id="id84">
        <rect class="BoundingBox" stroke="none" fill="none" x="19010" y="26918" width="466" height="485"/>
        <path fill="rgb(0,0,0)" stroke="none" d="M 19239,26925 C 19344,26901 19419,26936 19464,27030 19486,27149 19473,27264 19424,27374 19398,27383 19371,27392 19345,27401 19249,27340 19143,27300 19027,27282 18995,27202 19008,27127 19067,27057 19128,27015 19186,26971 19239,26925 Z"/>
       </g>
      </g>
      <g class="com.sun.star.drawing.ClosedBezierShape">
       <g id="id85">
        <rect class="BoundingBox" stroke="none" fill="none" x="25641" y="27638" width="82" height="81"/>
        <path fill="rgb(27,27,27)" stroke="none" d="M 25641,27639 C 25668,27639 25694,27639 25721,27639 25721,27665 25721,27692 25721,27718 25694,27718 25668,27718 25641,27718 25641,27692 25641,27665 25641,27639 Z"/>
       </g>
      </g>
      <g class="com.sun.star.drawing.ClosedBezierShape">
       <g id="id86">
        <rect class="BoundingBox" stroke="none" fill="none" x="27943" y="27717" width="85" height="135"/>
        <path fill="rgb(12,12,12)" stroke="none" d="M 27970,27718 C 28016,27746 28034,27790 28023,27851 27996,27851 27970,27851 27943,27851 27947,27805 27955,27761 27970,27718 Z"/>
       </g>
      </g>
      <g class="com.sun.star.drawing.ClosedBezierShape">
       <g id="id87">
        <rect class="BoundingBox" stroke="none" fill="none" x="25747" y="28565" width="108" height="133"/>
        <path fill="rgb(21,132,102)" stroke="none" d="M 25747,28565 C 25821,28577 25857,28621 25853,28697 25818,28697 25782,28697 25747,28697 25747,28653 25747,28609 25747,28565 Z"/>
       </g>
      </g>
      <g class="com.sun.star.drawing.ClosedBezierShape">
       <g id="id88">
        <rect class="BoundingBox" stroke="none" fill="none" x="27943" y="28724" width="186" height="186"/>
        <path fill="rgb(21,21,21)" stroke="none" d="M 27996,28724 C 28166,28759 28171,28821 28009,28909 27927,28857 27922,28795 27996,28724 Z"/>
       </g>
      </g>
      <g class="com.sun.star.drawing.ClosedBezierShape">
       <g id="id89">
        <rect class="BoundingBox" stroke="none" fill="none" x="19176" y="28877" width="300" height="324"/>
        <path fill="rgb(0,0,0)" stroke="none" d="M 19186,28882 C 19434,28852 19522,28954 19450,29187 19375,29212 19309,29198 19252,29147 19183,29067 19160,28979 19186,28882 Z"/>
       </g>
      </g>
      <g class="com.sun.star.drawing.ClosedBezierShape">
       <g id="id90">
        <rect class="BoundingBox" stroke="none" fill="none" x="27761" y="29729" width="330" height="292"/>
        <path fill="rgb(16,16,16)" stroke="none" d="M 27864,29729 C 27948,29729 28023,29755 28089,29808 28092,29946 28022,30017 27877,30020 27776,30012 27741,29959 27771,29861 27802,29816 27833,29772 27864,29729 Z"/>
       </g>
      </g>
      <g class="com.sun.star.drawing.ClosedBezierShape">
       <g id="id91">
        <rect class="BoundingBox" stroke="none" fill="none" x="27440" y="30729" width="467" height="419"/>
        <path fill="rgb(13,13,13)" stroke="none" d="M 27705,30735 C 27888,30711 27946,30782 27877,30947 27787,31087 27659,31153 27493,31146 27427,31067 27423,30983 27480,30894 27550,30831 27625,30778 27705,30735 Z"/>
       </g>
      </g>
      <g class="com.sun.star.drawing.ClosedBezierShape">
       <g id="id92">
        <rect class="BoundingBox" stroke="none" fill="none" x="21712" y="31660" width="248" height="204"/>
        <path fill="rgb(0,0,0)" stroke="none" d="M 21806,31660 C 21965,31665 22000,31731 21912,31859 21689,31879 21654,31813 21806,31660 Z"/>
       </g>
      </g>
      <g class="com.sun.star.drawing.ClosedBezierShape">
       <g id="id93">
        <rect class="BoundingBox" stroke="none" fill="none" x="24028" y="31678" width="350" height="451"/>
        <path fill="rgb(21,132,102)" stroke="none" d="M 24160,31687 C 24370,31652 24427,31732 24332,31925 24289,32081 24187,32147 24028,32123 24025,31967 24069,31822 24160,31687 Z"/>
       </g>
      </g>
      <g class="com.sun.star.drawing.ClosedBezierShape">
       <g id="id94">
        <rect class="BoundingBox" stroke="none" fill="none" x="24742" y="31660" width="186" height="131"/>
        <path fill="rgb(21,132,102)" stroke="none" d="M 24821,31660 C 24856,31660 24892,31660 24927,31660 24919,31784 24857,31819 24742,31766 24769,31731 24795,31695 24821,31660 Z"/>
       </g>
      </g>
      <g class="com.sun.star.drawing.ClosedBezierShape">
       <g id="id95">
        <rect class="BoundingBox" stroke="none" fill="none" x="18119" y="31793" width="246" height="227"/>
        <path fill="rgb(0,0,0)" stroke="none" d="M 18181,31793 C 18367,31790 18411,31865 18314,32018 18111,32023 18067,31949 18181,31793 Z"/>
       </g>
      </g>
      <g class="com.sun.star.drawing.ClosedBezierShape">
       <g id="id96">
        <rect class="BoundingBox" stroke="none" fill="none" x="19402" y="32052" width="199" height="195"/>
        <path fill="rgb(0,0,0)" stroke="none" d="M 19424,32057 C 19556,32035 19614,32088 19596,32216 19422,32285 19365,32232 19424,32057 Z"/>
       </g>
      </g>
      <g class="com.sun.star.drawing.ClosedBezierShape">
       <g id="id97">
        <rect class="BoundingBox" stroke="none" fill="none" x="22208" y="32136" width="419" height="447"/>
        <path fill="rgb(0,0,0)" stroke="none" d="M 22361,32137 C 22405,32137 22449,32137 22493,32137 22477,32282 22521,32405 22625,32507 22509,32591 22385,32604 22255,32547 22168,32380 22203,32244 22361,32137 Z"/>
       </g>
      </g>
      <g class="com.sun.star.drawing.ClosedBezierShape">
       <g id="id98">
        <rect class="BoundingBox" stroke="none" fill="none" x="18397" y="32322" width="315" height="413"/>
        <path fill="rgb(0,0,0)" stroke="none" d="M 18551,32322 C 18662,32335 18715,32402 18710,32520 18682,32757 18581,32797 18405,32639 18376,32496 18424,32390 18551,32322 Z"/>
       </g>
      </g>
      <g class="com.sun.star.drawing.ClosedBezierShape">
       <g id="id99">
        <rect class="BoundingBox" stroke="none" fill="none" x="23841" y="32423" width="231" height="138"/>
        <path fill="rgb(21,132,102)" stroke="none" d="M 23948,32428 C 24044,32408 24084,32443 24067,32534 24004,32563 23938,32567 23869,32547 23857,32536 23848,32523 23842,32507 23879,32480 23915,32454 23948,32428 Z"/>
       </g>
      </g>
      <g class="com.sun.star.drawing.ClosedBezierShape">
       <g id="id100">
        <rect class="BoundingBox" stroke="none" fill="none" x="22916" y="32583" width="501" height="481"/>
        <path fill="rgb(21,132,102)" stroke="none" d="M 23234,32586 C 23301,32576 23358,32594 23406,32639 23427,32724 23414,32804 23366,32877 23219,32946 23069,33008 22916,33063 22969,32869 23075,32710 23234,32586 Z"/>
       </g>
      </g>
      <g class="com.sun.star.drawing.ClosedBezierShape">
       <g id="id101">
        <rect class="BoundingBox" stroke="none" fill="none" x="20987" y="32612" width="347" height="532"/>
        <path fill="rgb(0,0,0)" stroke="none" d="M 21197,32613 C 21317,32602 21357,32655 21316,32772 21289,32932 21209,33055 21078,33142 20995,33095 20969,33025 20998,32930 21031,32802 21097,32697 21197,32613 Z"/>
       </g>
      </g>
      <g class="com.sun.star.drawing.ClosedBezierShape">
       <g id="id102">
        <rect class="BoundingBox" stroke="none" fill="none" x="20482" y="32770" width="182" height="180"/>
        <path fill="rgb(0,0,0)" stroke="none" d="M 20509,32772 C 20669,32757 20704,32814 20615,32944 20534,32960 20490,32925 20482,32838 20489,32814 20498,32792 20509,32772 Z"/>
       </g>
      </g>
      <g class="com.sun.star.drawing.ClosedBezierShape">
       <g id="id103">
        <rect class="BoundingBox" stroke="none" fill="none" x="21435" y="32771" width="340" height="610"/>
        <path fill="rgb(0,0,0)" stroke="none" d="M 21620,32772 C 21670,32773 21701,32800 21713,32851 21769,33006 21786,33165 21765,33327 21744,33362 21713,33379 21673,33380 21543,33343 21464,33260 21435,33129 21472,32996 21534,32877 21620,32772 Z"/>
       </g>
      </g>
      <g class="com.sun.star.drawing.ClosedBezierShape">
       <g id="id104">
        <rect class="BoundingBox" stroke="none" fill="none" x="18947" y="33035" width="337" height="412"/>
        <path fill="rgb(0,0,0)" stroke="none" d="M 19001,33036 C 19080,33030 19146,33056 19199,33116 19360,33378 19289,33484 18987,33433 18931,33296 18935,33163 19001,33036 Z"/>
       </g>
      </g>
      <g class="com.sun.star.drawing.ClosedBezierShape">
       <g id="id105">
        <rect class="BoundingBox" stroke="none" fill="none" x="22048" y="33089" width="368" height="346"/>
        <path fill="rgb(0,0,0)" stroke="none" d="M 22123,33089 C 22266,33101 22363,33171 22414,33301 22323,33468 22213,33477 22083,33327 22025,33234 22038,33155 22123,33089 Z"/>
       </g>
      </g>
      <g class="com.sun.star.drawing.ClosedBezierShape">
       <g id="id106">
        <rect class="BoundingBox" stroke="none" fill="none" x="19531" y="33380" width="477" height="391"/>
        <path fill="rgb(0,0,0)" stroke="none" d="M 19583,33380 C 19751,33425 19892,33518 20006,33658 19858,33803 19713,33807 19569,33671 19514,33569 19518,33471 19583,33380 Z"/>
       </g>
      </g>
      <g class="com.sun.star.drawing.ClosedBezierShape">
       <g id="id107">
        <rect class="BoundingBox" stroke="none" fill="none" x="25188" y="33380" width="535" height="425"/>
        <path fill="rgb(0,0,0)" stroke="none" d="M 25641,33380 C 25668,33380 25694,33380 25721,33380 25680,33601 25553,33742 25337,33803 25283,33807 25239,33790 25205,33751 25161,33620 25201,33528 25324,33473 25412,33464 25500,33455 25588,33446 25612,33428 25629,33406 25641,33380 Z"/>
       </g>
      </g>
      <g class="com.sun.star.drawing.ClosedBezierShape">
       <g id="id108">
        <rect class="BoundingBox" stroke="none" fill="none" x="26063" y="33776" width="347" height="267"/>
        <path fill="rgb(0,0,0)" stroke="none" d="M 26197,33777 C 26289,33770 26360,33806 26409,33883 26318,33986 26203,34038 26065,34042 26060,33997 26065,33952 26078,33909 26123,33869 26163,33825 26197,33777 Z"/>
       </g>
      </g>
      <g class="com.sun.star.drawing.ClosedBezierShape">
       <g id="id109">
        <rect class="BoundingBox" stroke="none" fill="none" x="23049" y="33882" width="654" height="371"/>
        <path fill="rgb(0,0,0)" stroke="none" d="M 23181,33884 C 23263,33875 23325,33906 23366,33976 23463,33985 23560,33994 23657,34003 23724,34061 23715,34114 23631,34162 23481,34244 23322,34270 23154,34241 23041,34174 23019,34081 23088,33963 23128,33946 23159,33919 23181,33884 Z"/>
       </g>
      </g>
      <g class="com.sun.star.drawing.ClosedBezierShape">
       <g id="id110">
        <rect class="BoundingBox" stroke="none" fill="none" x="24195" y="33936" width="519" height="504"/>
        <path fill="rgb(0,0,0)" stroke="none" d="M 24319,33936 C 24420,33936 24491,33984 24530,34081 24743,34123 24770,34220 24610,34372 24305,34517 24169,34425 24199,34095 24235,34037 24274,33984 24319,33936 Z"/>
       </g>
      </g>
      <g class="com.sun.star.drawing.ClosedBezierShape">
       <g id="id111">
        <rect class="BoundingBox" stroke="none" fill="none" x="25641" y="34276" width="161" height="82"/>
        <path fill="rgb(0,0,0)" stroke="none" d="M 25641,34280 C 25697,34272 25750,34281 25800,34306 25769,34356 25724,34369 25668,34346 25648,34328 25639,34306 25641,34280 Z"/>
       </g>
      </g>
      <g class="com.sun.star.drawing.ClosedBezierShape">
       <g id="id112">
        <rect class="BoundingBox" stroke="none" fill="none" x="22810" y="34885" width="292" height="217"/>
        <path fill="rgb(0,0,0)" stroke="none" d="M 22863,34888 C 22952,34877 23027,34903 23088,34968 23117,35040 23095,35084 23022,35100 22926,35095 22856,35050 22810,34968 22829,34941 22846,34914 22863,34888 Z"/>
       </g>
      </g>
      <g class="com.sun.star.drawing.ClosedBezierShape">
       <g id="id113">
        <rect class="BoundingBox" stroke="none" fill="none" x="16556" y="2686" width="7205" height="15510"/>
        <path fill="rgb(0,169,51)" stroke="none" d="M 19377,6582 L 19371,6572 C 19377,6539 19387,6504 19400,6469 19353,6434 19303,6406 19251,6385 L 18717,5547 C 18739,5531 18760,5512 18779,5490 18773,5475 18764,5461 18752,5450 18574,5385 18402,5310 18236,5225 18219,5190 18219,5155 18236,5120 18337,5062 18350,4991 18276,4908 18044,4841 17815,4766 17588,4683 17321,4514 17038,4373 16741,4260 16503,4108 16494,3940 16715,3757 16998,3677 17272,3571 17535,3440 17652,3358 17727,3248 17760,3109 17762,2963 17784,2822 17826,2686 18009,2823 18093,3008 18077,3241 17998,3338 17919,3435 17839,3532 17742,3674 17782,3722 17958,3678 18091,3629 18223,3581 18355,3532 18463,3555 18569,3586 18673,3625 18811,3694 18811,3756 18673,3810 18567,3819 18461,3828 18355,3836 18259,3857 18206,3915 18196,4008 18751,4065 19306,4087 19863,4075 19987,3986 20110,3898 20234,3810 20417,3690 20514,3739 20525,3956 20519,4125 20449,4261 20313,4366 20182,4423 20050,4475 19916,4524 19870,4561 19835,4605 19810,4657 19817,4690 19835,4716 19863,4736 20045,4786 20231,4822 20419,4842 20500,4872 20580,4907 20657,4948 20801,5110 20925,5286 21027,5477 21024,5497 21015,5515 21001,5530 20904,5539 20807,5547 20710,5556 20681,5576 20664,5602 20657,5636 20828,5815 21009,5987 21199,6151 21249,6215 21267,6286 21252,6363 21220,6379 21184,6388 21146,6390 20984,6348 20821,6313 20657,6284 20653,6329 20657,6373 20670,6416 20852,6589 21042,6752 21239,6906 21393,7095 21565,7267 21755,7421 21887,7713 22020,8004 22152,8295 22210,8362 22276,8419 22350,8467 22552,8525 22754,8578 22959,8625 22972,8737 22919,8807 22800,8837 22432,8886 22106,8794 21821,8559 21745,8476 21697,8379 21676,8268 21541,8106 21369,8018 21160,8004 21159,8051 21173,8095 21199,8136 21497,8557 21850,8927 22258,9247 22275,9265 22275,9282 22258,9300 22127,9397 21981,9428 21821,9393 21633,9303 21447,9206 21266,9101 20952,8969 20626,8916 20287,8943 20236,8952 20192,8974 20154,9009 20170,9043 20196,9065 20234,9075 20540,9118 20822,9224 21080,9393 21567,9606 21898,9963 22072,10464 22090,10570 22090,10676 22072,10782 22014,10815 21957,10810 21900,10768 21759,10601 21583,10504 21371,10477 21337,10499 21319,10529 21318,10570 21410,10772 21537,10948 21702,11099 22047,11563 22280,12079 22403,12647 22509,12963 22694,13219 22959,13414 23222,13451 23486,13477 23752,13493 23773,13569 23746,13631 23673,13679 23294,13907 22915,13907 22535,13679 22425,13568 22315,13458 22205,13348 22138,13252 22094,13146 22072,13030 L 21980,12938 C 21942,12917 21906,12922 21874,12951 21843,13057 21790,13150 21715,13229 21680,13233 21645,13238 21609,13242 21367,13183 21129,13108 20895,13017 20715,12959 20535,12946 20353,12978 20341,13033 20363,13073 20419,13097 20707,13197 20972,13338 21213,13520 21400,13543 21559,13623 21689,13758 22139,14146 22311,14635 22205,15226 22112,15115 22010,15014 21900,14922 21823,14860 21762,14869 21715,14949 21947,15589 21881,16193 21517,16761 21259,17256 21338,17689 21755,18057 21782,18098 21795,18142 21795,18190 21666,18208 21551,18177 21451,18097 21079,17777 20951,17375 21067,16893 21149,16623 21246,16359 21358,16100 21610,14949 21151,14305 19982,14168 19745,14157 19705,14232 19863,14393 20042,14417 20218,14452 20392,14499 20522,14608 20663,14705 20816,14790 20944,14909 21027,15054 21067,15226 21164,15679 21093,16103 20855,16496 20728,16655 20565,16721 20366,16695 20352,16680 20343,16662 20340,16642 20701,16447 20873,16143 20855,15729 20766,15516 20620,15353 20419,15240 20135,15166 19866,15055 19612,14909 19592,14061 19623,13214 19705,12369 19701,12201 19688,12033 19665,11866 19606,11581 19558,11295 19519,11006 19570,10684 19627,10362 19691,10041 19709,9229 19709,8418 19691,7607 19675,7563 19662,7519 19652,7474 19677,7402 19726,7349 19797,7316 19815,7272 19815,7227 19797,7183 19720,7116 19636,7059 19546,7011 19401,6892 19342,6751 19368,6588 L 19377,6582 Z"/>
       </g>
      </g>
     </g>
    </g>
   </g>
  </g>
 </g>
</svg>